<svg width="152" height="176" viewBox="0 0 152 176" fill="none" xmlns="http://www.w3.org/2000/svg">
<path d="M92.743 11.4331C92.743 11.4331 93.184 -1.15717 69.7477 0.266254C58.1197 1.80997 46.3714 7.00244 37.8108 21.6577C20.0882 51.9706 36.0065 157.905 36.0065 157.905H110.947C110.546 157.424 133.461 65.5031 114.515 25.126C111.769 19.2519 107.037 17.9688 100.381 16.2446C98.9779 15.8838 93.9058 11.4331 92.743 11.4331Z" fill="#282828"/>
<path d="M151.945 188.98C151.945 188.98 147.094 169.172 144.768 164.04C138.734 150.628 93.4446 128.916 93.4446 128.916V82.123H55.5936V128.916C55.5936 128.916 11.7683 150.307 6.43545 163.058C4.17001 168.491 0 188.98 0 188.98H151.945Z" fill="#F2B6A9"/>
<path d="M107.659 63.5182C107.659 63.5182 110.285 57.9449 115.718 60.6915C121.151 63.418 118.685 80.9401 110.546 83.1855C110.546 83.1855 107.619 84.0276 105.333 81.3812C105.333 81.3812 107.338 68.43 107.659 63.5182Z" fill="#F2B6A9"/>
<path d="M114.636 66.866C114.636 66.866 110.085 64.8411 106.857 73.7425" stroke="#282828" stroke-width="1.3968" stroke-miterlimit="10" stroke-linecap="round" stroke-linejoin="round"/>
<path d="M42.7228 63.5182C42.7228 63.5182 40.0965 57.9449 34.6635 60.6915C29.2304 63.418 31.6963 80.9401 39.8359 83.1855C39.8359 83.1855 42.7629 84.0276 45.0484 81.3812C45.0484 81.3812 43.0436 68.43 42.7228 63.5182Z" fill="#F2B6A9"/>
<path d="M35.7461 66.866C35.7461 66.866 40.297 64.8411 43.5248 73.7425" stroke="#282828" stroke-width="1.3968" stroke-miterlimit="10" stroke-linecap="round" stroke-linejoin="round"/>
<path d="M111.368 44.3723C111.368 54.9377 110.365 77.0308 104.07 90.1424C98.1559 102.452 83.7412 109.689 74.8398 109.99C65.7579 110.311 53.2479 104.778 45.6095 88.7991C37.9712 72.8207 38.332 44.5527 38.332 44.5527C38.332 44.5527 38.332 6.82202 74.4589 6.82202C112.49 6.82202 111.368 44.3723 111.368 44.3723Z" fill="#FAC7BB"/>
<path d="M108.942 30.1784C106.596 25.4871 102.626 23.0011 98.8372 22.9209H98.4363L98.5566 23.7629C100.12 35.431 102.566 44.4527 105.814 50.6075C107.638 54.0157 109.763 56.4214 112.169 57.7246L112.57 57.9451L112.55 57.083C112.49 53.9956 112.41 51.4495 112.35 49.8857C112.35 49.3845 112.871 38.0774 108.942 30.1784Z" fill="#282828"/>
<path d="M55.4331 5.92013C36.9687 8.28582 36.9888 45.0342 36.9888 45.3549C36.9888 45.4151 37.2494 52.1713 38.0915 60.5114L38.1717 61.3935L38.6528 61.2532C41.7001 60.4111 44.9078 56.3213 47.0329 53.6348L47.3136 53.274C51.203 48.3421 54.7916 42.3477 58.0194 35.4511C61.3073 28.4342 66.7403 11.694 68.7652 4.05566C68.7652 4.05566 59.9841 5.33873 55.4331 5.92013Z" fill="#282828"/>
<path d="M101.985 29.4766C104.17 39.6009 107.197 47.3195 110.626 51.9907" stroke="white" stroke-miterlimit="10" stroke-linecap="round" stroke-linejoin="round"/>
<path d="M41.5798 52.0309C50.5614 41.4254 56.8566 31.4815 61.207 17.4678" stroke="white" stroke-miterlimit="10" stroke-linecap="round" stroke-linejoin="round"/>
<path d="M37.8105 34.2882C42.161 20.7356 52.9871 9.42847 66.3392 4.47656" stroke="white" stroke-miterlimit="10" stroke-linecap="round" stroke-linejoin="round"/>
</svg>
