<svg width="131" height="131" viewBox="0 0 131 131" fill="none" xmlns="http://www.w3.org/2000/svg">
<path d="M114.295 57.3384C114.295 57.3384 118.303 49.2012 126.562 53.2086C134.822 57.216 131.09 82.8204 118.701 86.0936C118.701 86.0936 114.265 87.3172 110.778 83.4322C110.778 83.4322 113.806 64.5272 114.295 57.3384Z" fill="#F2B6A9"/>
<path d="M16.6806 57.3384C16.6806 57.3384 12.6732 49.2012 4.41372 53.2086C-3.84576 57.216 -0.113676 82.8204 12.2755 86.0936C12.2755 86.0936 16.7112 87.3172 20.1985 83.4322C20.1985 83.4322 17.1701 64.5272 16.6806 57.3384Z" fill="#F2B6A9"/>
<path d="M65.4725 123.138C95.41 123.138 119.679 97.2254 119.679 65.2605C119.679 33.2957 95.41 7.38306 65.4725 7.38306C35.535 7.38306 11.2659 33.2957 11.2659 65.2605C11.2659 97.2254 35.535 123.138 65.4725 123.138Z" fill="#FAC7BB"/>
<path d="M32.9856 108.302C39.6544 111.544 46.3538 114.756 53.0225 117.999" stroke="#282828" stroke-width="0.75" stroke-miterlimit="10" stroke-linecap="round" stroke-linejoin="round"/>
<path d="M93.8911 108.302C87.2223 111.544 80.523 114.756 73.8542 117.999" stroke="#282828" stroke-width="0.75" stroke-miterlimit="10" stroke-linecap="round" stroke-linejoin="round"/>
<path d="M66.2068 131H64.7691C62.7195 131 61.0676 129.348 61.0676 127.299V120.538C61.0676 118.489 62.7195 116.837 64.7691 116.837H66.2068C68.2564 116.837 69.9083 118.489 69.9083 120.538V127.299C69.9083 129.348 68.2564 131 66.2068 131Z" fill="#FAC7BB"/>
<path d="M6.76919 66.8209L2.7312 30.5098C2.7312 30.5098 13.2238 2.39696 60.4252 0.194433C107.627 -2.0081 125.92 28.8885 125.92 28.8885L122.677 61.4064L6.76919 66.8209Z" fill="#282828"/>
<path d="M91.2304 94.9642L54.2157 98.3598C54.2157 98.3598 37.1767 121.945 26.7758 116.928C26.7758 116.928 4.62827 92.7616 6.76962 66.7902C8.94156 40.8187 22.3402 2.3051 60.4256 0.133167C98.5109 -2.03877 105.425 23.0762 105.425 23.0762C105.425 23.0762 109.738 24.3609 116.682 30.8767C123.595 37.362 127.939 94.9336 108.881 105.304C108.912 105.334 106.128 108.485 91.2304 94.9642Z" fill="#282828"/>
<path d="M76.4858 102.337C76.5164 102.214 76.5776 102.061 76.6082 101.939C76.394 102.275 76.1493 102.581 75.874 102.826C76.1187 102.642 76.3022 102.52 76.4858 102.337Z" fill="#FAC7BB"/>
<path d="M76.9446 101.51C76.8222 101.663 76.6999 101.786 76.6387 101.969C76.7304 101.816 76.8528 101.663 76.9446 101.51Z" fill="#FAC7BB"/>
<path d="M110.931 50.0875C111.94 50.3016 112.95 50.577 113.99 50.8523C116.559 52.29 119.16 53.7278 121.729 55.1656C117.905 48.9251 114.082 42.6846 110.258 36.4441C112.032 36.8724 113.806 37.2701 115.58 37.6983C117.844 39.1667 120.108 40.6349 122.372 42.1033C120.414 38.0653 118.487 34.0274 116.529 30.02C114.816 26.4715 112.399 22.7089 111.084 18.9462C111.022 18.6097 110.931 18.3038 110.87 17.9673C110.778 17.2943 110.686 16.6213 110.655 15.9483L110.472 16.4989C110.441 15.8871 110.472 15.3059 110.502 14.5412C110.625 11.7574 110.717 11.6044 107.963 10.5032C104.017 8.88187 100.102 7.19943 96.1554 5.57812C94.84 8.45365 93.647 11.4821 92.0257 14.2046C88.2018 13.2257 84.3168 9.43251 81.013 7.16881C82.359 9.21838 83.705 11.268 85.051 13.3176C78.2905 13.7764 71.5299 14.2658 64.8 14.7247C68.5321 16.499 72.264 18.2732 75.9961 20.0474C65.0446 18.4873 53.665 20.1087 43.5701 24.6667C50.5447 27.4198 57.5499 30.1729 64.5246 32.9261C60.9149 34.8533 57.2746 36.8112 53.665 38.7384C59.1101 39.3196 64.5858 39.9008 70.031 40.482C62.0468 42.348 54.0321 44.1835 46.0479 46.0495C54.2768 49.8733 62.4751 53.6972 70.704 57.521C63.8211 60.0906 57.5194 61.8037 50.0553 61.8037C55.5004 63.3944 60.9149 64.9546 66.3601 66.5453C59.5689 68.5031 52.8084 70.4915 46.0173 72.4493C52.7472 74.1012 59.4772 75.7531 66.2071 77.3744C63.4846 85.2974 59.2018 92.7003 53.7261 99.0019C61.6185 102.428 69.6027 103.132 77.801 101.052C79.2388 100.684 80.5847 100.348 81.8695 100.011C81.7778 100.164 81.686 100.317 81.5942 100.501C82.6037 100.134 83.6132 99.7056 84.5615 99.2161C87.2229 98.329 89.609 97.1665 91.7809 95.1781C97.0425 97.9313 102.304 100.684 107.566 103.438C103.038 98.7878 99.4897 93.1897 97.1343 87.1634C97.3484 86.7351 97.532 86.3068 97.7767 85.9091C102.579 85.9091 107.382 87.0716 111.604 89.3048C109.34 85.2056 107.076 81.1064 104.813 77.0072C106.403 76.3343 108.422 76.7013 109.646 77.9556C108.392 76.6096 107.137 75.2942 105.883 73.9482C108.698 73.7646 111.542 73.5505 114.357 73.367C114.204 73.1834 114.051 73.0305 113.898 72.847C114.143 72.9081 114.418 72.9387 114.663 73.0305C112.46 70.3079 110.258 67.5853 108.055 64.8628C109.095 64.6486 110.105 64.4651 111.145 64.251C114.54 65.597 117.661 67.5853 120.261 70.1244C119.129 67.7995 117.997 65.4746 116.865 63.1497C117.385 63.0579 117.936 62.9356 118.456 62.8438C118.15 61.0696 116.437 59.6012 114.907 58.2246C114.54 57.9187 114.296 57.5516 113.99 57.2151C113.103 55.4102 112.246 53.6054 111.359 51.8006C111.145 51.1888 111.022 50.6687 110.931 50.0875Z" fill="#FAC7BB"/>
<path d="M31.7307 113.288C42.7128 105.457 51.5534 94.6277 57.0292 82.269" stroke="white" stroke-miterlimit="10" stroke-linecap="round" stroke-linejoin="round"/>
</svg>
