<svg width="152" height="176" viewBox="0 0 152 176" fill="none" xmlns="http://www.w3.org/2000/svg">
<path d="M97.7715 10.7729C97.7715 10.7729 93.1243 -1.30579 69.6881 0.116411C58.0701 1.6588 46.332 6.84682 37.7788 21.4895C20.0714 51.7763 35.976 157.62 35.976 157.62H110.852C110.451 157.139 133.347 65.2972 114.417 24.9548C111.092 17.8639 104.482 10.7529 97.7715 10.7729Z" fill="#282828"/>
<path d="M151.835 188.668C151.835 188.668 146.987 168.877 144.664 163.749C138.634 150.349 93.3844 128.655 93.3844 128.655V81.9028H55.5459V128.655C55.5459 128.655 11.7582 150.028 6.42994 162.768C4.16644 168.196 0 188.668 0 188.668H151.835Z" fill="#F2B6A9"/>
<path d="M107.566 63.3142C107.566 63.3142 110.19 57.7456 115.618 60.4899C121.047 63.2141 118.583 80.7212 110.45 82.9646C110.45 82.9646 107.526 83.8059 105.242 81.1618C105.242 81.1418 107.246 68.2218 107.566 63.3142Z" fill="#F2B6A9"/>
<path d="M114.537 66.6597C114.537 66.6597 109.99 64.6366 106.765 73.5304" stroke="#282828" stroke-width="1.3968" stroke-miterlimit="10" stroke-linecap="round" stroke-linejoin="round"/>
<path d="M42.6858 63.314C42.6858 63.314 40.0618 57.7454 34.6334 60.4896C29.205 63.2138 31.6688 80.7209 39.8014 82.9644C39.8014 82.9644 42.7259 83.8057 45.0094 81.1616C45.0094 81.1416 43.0063 68.2216 42.6858 63.314Z" fill="#F2B6A9"/>
<path d="M35.7153 66.6595C35.7153 66.6595 40.2624 64.6364 43.4873 73.5301" stroke="#282828" stroke-width="1.3968" stroke-miterlimit="10" stroke-linecap="round" stroke-linejoin="round"/>
<path d="M111.271 44.1645C111.271 54.7208 110.27 76.795 103.98 89.8952C98.071 102.194 83.6688 109.425 74.775 109.726C65.701 110.046 53.2016 104.518 45.5698 88.5531C37.938 72.5885 38.2986 44.3448 38.2986 44.3448C38.2986 44.3448 38.2986 6.64648 74.3944 6.64648C112.393 6.66652 111.271 44.1645 111.271 44.1645Z" fill="#FAC7BB"/>
<path d="M101.798 15.9607C95.3476 9.25034 86.2936 5.78498 74.916 5.68483L73.6941 5.66479L73.9345 6.86665C77.1594 23.5525 83.3891 36.4524 92.4631 45.226C97.5109 50.1135 103.66 53.5388 110.731 55.4017L111.913 55.7222L111.973 54.5003C112.214 50.0935 112.254 46.4479 112.254 44.2044C112.294 43.5033 112.654 27.2382 101.798 15.9607Z" fill="#282828"/>
<path d="M97.0901 11.9545C91.0608 7.78808 83.429 5.66479 74.395 5.66479C37.7183 5.66479 37.2977 43.9841 37.2977 44.3646C37.2977 44.4448 37.2175 51.8963 38.139 61.1706L38.2391 62.1521L39.2206 62.072C45.3101 61.5712 52.0004 57.545 56.4272 54.8809L57.0081 54.5203C65.1007 49.6328 72.7325 43.5634 79.7032 36.4324C86.7942 29.1812 92.7434 21.3891 97.3906 13.2766L97.8513 12.4753L97.0901 11.9545Z" fill="#282828"/>
<path d="M96.4095 12.4155C94.6268 14.3986 92.8641 16.3616 91.0813 18.3447" stroke="white" stroke-miterlimit="10" stroke-linecap="round" stroke-linejoin="round"/>
<path d="M92.2021 31.5652C94.7861 39.9582 102.138 46.6886 110.711 48.5515" stroke="white" stroke-miterlimit="10" stroke-linecap="round" stroke-linejoin="round"/>
<path d="M42.8467 52.3174C57.2089 44.8859 69.8084 34.1093 79.3832 21.0691" stroke="white" stroke-miterlimit="10" stroke-linecap="round" stroke-linejoin="round"/>
<path d="M37.7988 34.109C42.1255 20.5681 52.9623 9.27064 66.3029 4.34302" stroke="white" stroke-miterlimit="10" stroke-linecap="round" stroke-linejoin="round"/>
</svg>
