<svg width="116" height="116" viewBox="0 0 116 116" fill="none" xmlns="http://www.w3.org/2000/svg">
<path d="M101.019 50.6507C101.019 50.6507 104.561 43.4587 111.861 47.0006C119.161 50.5425 115.862 73.1726 104.912 76.0656C104.912 76.0656 100.992 77.1471 97.9097 73.7134C97.9097 73.7134 100.613 57.0044 101.019 50.6507Z" fill="#F2B6A9"/>
<path d="M14.7429 50.6507C14.7429 50.6507 11.2011 43.4587 3.90102 47.0006C-3.39902 50.5425 -0.100486 73.1726 10.8496 76.0656C10.8496 76.0656 14.77 77.1471 17.8522 73.7134C17.8522 73.7134 15.1755 57.0044 14.7429 50.6507Z" fill="#F2B6A9"/>
<path d="M57.8948 108.807C84.3547 108.807 105.805 85.9047 105.805 57.6529C105.805 29.4011 84.3547 6.49854 57.8948 6.49854C31.4349 6.49854 9.98486 29.4011 9.98486 57.6529C9.98486 85.9047 31.4349 108.807 57.8948 108.807Z" fill="#FAC7BB"/>
<path d="M29.1538 95.6943C35.0479 98.5603 40.942 101.399 46.8632 104.265" stroke="#282828" stroke-width="0.75" stroke-miterlimit="10" stroke-linecap="round" stroke-linejoin="round"/>
<path d="M83.0121 95.6943C77.118 98.5603 71.1968 101.399 65.3027 104.265" stroke="#282828" stroke-width="0.75" stroke-miterlimit="10" stroke-linecap="round" stroke-linejoin="round"/>
<path d="M58.5166 115.756H57.2459C55.4344 115.756 53.9744 114.296 53.9744 112.485V106.509C53.9744 104.698 55.4344 103.238 57.2459 103.238H58.5166C60.3281 103.238 61.7881 104.698 61.7881 106.509V112.485C61.7881 114.269 60.3281 115.756 58.5166 115.756Z" fill="#FAC7BB"/>
<path d="M5.98395 59.032L2.41504 26.9389C2.41504 26.9389 11.6888 2.09168 53.4072 0.144999C95.1257 -1.80168 111.294 25.5059 111.294 25.5059L108.428 54.2465L5.98395 59.032Z" fill="#282828"/>
<path d="M70.197 88.232C70.197 88.232 43.5383 112.917 23.6389 103.346C23.6389 103.346 4.06393 81.9864 5.95654 59.0318C7.87618 36.0772 19.7185 2.03734 53.3798 0.117698C87.0412 -1.80194 93.1516 20.3956 93.1516 20.3956C93.1516 20.3956 96.9638 21.5312 103.101 27.2901C109.212 33.022 113.051 83.906 96.2068 93.0717C96.2609 93.0717 83.3641 100.155 70.197 88.232Z" fill="#282828"/>
<path d="M72.0095 76.4165C81.3374 62.222 86.7989 45.486 87.61 28.5066" stroke="white" stroke-miterlimit="10" stroke-linecap="round" stroke-linejoin="round"/>
<path d="M80.4717 82.0674C85.4736 86.177 92.0977 88.313 98.5596 87.8533" stroke="white" stroke-miterlimit="10" stroke-linecap="round" stroke-linejoin="round"/>
<path d="M29.0732 99.9658C40.8074 97.7487 51.9197 92.3683 60.869 84.5005" stroke="white" stroke-miterlimit="10" stroke-linecap="round" stroke-linejoin="round"/>
</svg>
