<svg width="152" height="176" viewBox="0 0 152 176" fill="none" xmlns="http://www.w3.org/2000/svg">
<path d="M97.2329 11.0478C97.2329 11.0478 92.6104 -0.966836 69.2984 0.447825C57.742 1.98204 46.066 7.14256 37.5582 21.7076C19.9446 51.8339 35.7649 157.117 35.7649 157.117H110.244C109.845 156.638 132.619 65.2831 113.79 25.1546C110.483 18.1012 103.908 11.0279 97.2329 11.0478Z" fill="#282828"/>
<path d="M151.01 188C151.01 188 146.188 168.315 143.877 163.214C137.88 149.884 92.8695 128.306 92.8695 128.306V81.801H55.2514V128.306C55.2514 128.306 11.6958 149.565 6.39585 162.237C4.14434 167.637 0 188 0 188H151.01Z" fill="#F2B6A9"/>
<path d="M106.977 63.3104C106.977 63.3104 109.587 57.7713 114.986 60.501C120.386 63.2108 117.935 80.625 109.846 82.8566C109.846 82.8566 106.937 83.6935 104.665 81.0634C104.685 81.0435 106.678 68.192 106.977 63.3104Z" fill="#F2B6A9"/>
<path d="M113.93 66.6382C113.93 66.6382 109.407 64.6258 106.199 73.4724" stroke="#282828" stroke-width="1.3968" stroke-miterlimit="10" stroke-linecap="round" stroke-linejoin="round"/>
<path d="M42.4601 63.3104C42.4601 63.3104 39.8499 57.7713 34.4503 60.501C29.0507 63.2108 31.5014 80.625 39.5909 82.8566C39.5909 82.8566 42.4999 83.6935 44.7713 81.0634C44.7514 81.0435 42.7589 68.192 42.4601 63.3104Z" fill="#F2B6A9"/>
<path d="M35.5063 66.6379C35.5063 66.6379 40.0292 64.6255 43.2371 73.4721" stroke="#282828" stroke-width="1.3968" stroke-miterlimit="10" stroke-linecap="round" stroke-linejoin="round"/>
<path d="M110.663 44.2625C110.663 54.7629 109.666 76.72 103.41 89.7508C97.532 101.985 83.2061 109.178 74.3595 109.476C65.3336 109.795 52.9005 104.296 45.3091 88.4159C37.7178 72.5358 38.0764 44.4418 38.0764 44.4418C38.0764 44.4418 38.0764 6.94336 73.9809 6.94336C111.798 6.96328 110.663 44.2625 110.663 44.2625Z" fill="#FAC7BB"/>
<path d="M103.111 16.2081C97.8309 9.53334 90.4388 6.08635 81.1339 5.98672L80.1377 5.9668L80.337 7.16229C82.967 23.7596 88.0677 36.5912 95.4798 45.3183C99.6042 50.1799 104.625 53.5871 110.423 55.4401L111.4 55.7589L111.459 54.5435C111.659 50.16 111.699 46.5337 111.699 44.3021C111.679 43.6048 111.978 27.4258 103.111 16.2081Z" fill="#282828"/>
<path d="M96.5757 12.2232C90.5783 8.07882 82.9869 5.9668 74.0009 5.9668C37.5185 5.9668 37.1001 44.0829 37.1001 44.4615C37.1001 44.5412 37.0205 51.9532 37.937 61.1784L38.0366 62.1547L39.0129 62.075C45.07 61.5769 51.7249 57.572 56.1283 54.922L56.7061 54.5634C64.7558 49.7017 72.3471 43.6645 79.281 36.5713C86.3344 29.3585 92.252 21.6078 96.8746 13.5382L97.3328 12.7412L96.5757 12.2232Z" fill="#282828"/>
<path d="M97.5319 13.7974L90.5981 18.5794L94.5831 11.1275C95.1211 10.1312 96.3564 9.75266 97.3526 10.2906C98.3489 10.8286 98.7275 12.0639 98.1895 13.0602C98.0301 13.379 97.8109 13.6181 97.5319 13.7974Z" fill="#FAC7BB"/>
<path d="M91.6941 31.73C94.2644 40.0785 101.577 46.7732 110.105 48.6262" stroke="white" stroke-miterlimit="10" stroke-linecap="round" stroke-linejoin="round"/>
<path d="M42.5996 52.3722C56.8857 44.9801 69.4184 34.2606 78.9424 21.2896" stroke="white" stroke-miterlimit="10" stroke-linecap="round" stroke-linejoin="round"/>
<path d="M37.5786 34.2603C41.9023 20.7911 52.6617 9.55351 65.9316 4.63208" stroke="white" stroke-miterlimit="10" stroke-linecap="round" stroke-linejoin="round"/>
</svg>
