<svg width="119" height="118" viewBox="0 0 119 118" fill="none" xmlns="http://www.w3.org/2000/svg">
<path d="M103.277 51.6323C103.277 51.6323 106.888 44.3009 114.33 47.9115C121.771 51.522 118.409 74.5909 107.246 77.5399C107.246 77.5399 103.25 78.6424 100.108 75.1421C100.108 75.1421 102.837 58.1092 103.277 51.6323Z" fill="#F2B6A9"/>
<path d="M15.3288 51.6323C15.3288 51.6323 11.7183 44.3009 4.27669 47.9115C-3.16488 51.522 0.19763 74.5909 11.36 77.5399C11.36 77.5399 15.3564 78.6424 18.4984 75.1421C18.4984 75.1421 15.7698 58.1092 15.3288 51.6323Z" fill="#F2B6A9"/>
<path d="M59.2892 110.916C86.2621 110.916 108.128 87.5698 108.128 58.7704C108.128 29.9709 86.2621 6.62427 59.2892 6.62427C32.3163 6.62427 10.4504 29.9709 10.4504 58.7704C10.4504 87.5698 32.3163 110.916 59.2892 110.916Z" fill="#FAC7BB"/>
<path d="M30.0186 97.5491C36.0269 100.471 42.0628 103.365 48.0712 106.286" stroke="#282828" stroke-width="0.75" stroke-miterlimit="10" stroke-linecap="round" stroke-linejoin="round"/>
<path d="M84.8935 97.5491C78.8851 100.471 72.8492 103.365 66.8408 106.286" stroke="#282828" stroke-width="0.75" stroke-miterlimit="10" stroke-linecap="round" stroke-linejoin="round"/>
<path d="M59.9506 118H58.6553C56.8086 118 55.3203 116.511 55.3203 114.665V108.574C55.3203 106.727 56.8086 105.239 58.6553 105.239H59.9506C61.7973 105.239 63.2855 106.727 63.2855 108.574V114.665C63.2855 116.484 61.7973 118 59.9506 118Z" fill="#FAC7BB"/>
<path d="M6.39858 60.1763L2.7605 27.461C2.7605 27.461 12.214 2.13208 54.7412 0.147657C97.2684 -1.83676 113.75 26.0002 113.75 26.0002L110.829 55.298L6.39858 60.1763Z" fill="#282828"/>
<path d="M71.8574 89.9424C71.8574 89.9424 44.6819 115.106 24.3967 105.349C24.3967 105.349 4.44234 83.5758 6.37163 60.1762C8.32849 36.7766 20.4003 2.07684 54.7142 0.11998C89.0281 -1.83688 95.257 20.791 95.257 20.791C95.257 20.791 99.1432 21.9486 105.4 27.8192C111.628 33.6622 115.542 85.5326 98.3714 94.876C98.4265 94.876 85.2798 102.097 71.8574 89.9424Z" fill="#282828"/>
<path d="M73.6758 77.8978C77.5068 70.0704 80.952 62.243 83.5703 54.1123C86.2438 45.9817 88.0628 37.6582 89.5787 29.0591C90.2402 37.7685 88.8621 46.6157 86.1886 54.9667C83.46 63.2903 79.3534 71.228 73.6758 77.8978Z" fill="#FAC7BB"/>
<path d="M82.3298 83.6582C87.4287 87.8475 94.1812 90.0249 100.768 89.5563" stroke="white" stroke-miterlimit="10" stroke-linecap="round" stroke-linejoin="round"/>
<path d="M29.9087 101.904C41.8703 99.6437 53.1705 94.159 62.3209 86.1387" stroke="white" stroke-miterlimit="10" stroke-linecap="round" stroke-linejoin="round"/>
</svg>
