<svg width="122" height="121" viewBox="0 0 122 121" fill="none" xmlns="http://www.w3.org/2000/svg">
<path d="M105.596 52.9449C105.596 52.9449 109.298 45.4272 116.929 49.1295C124.559 52.8319 121.111 76.4872 109.665 79.5113C109.665 79.5113 105.567 80.6418 102.345 77.0525C102.317 77.0525 105.143 59.5865 105.596 52.9449Z" fill="#F2B6A9"/>
<path d="M15.4109 52.9449C15.4109 52.9449 11.7085 45.4272 4.07775 49.1295C-3.55302 52.8319 -0.105023 76.4872 11.3411 79.5113C11.3411 79.5113 15.4391 80.6418 18.661 77.0525C18.661 77.0525 15.8348 59.5865 15.4109 52.9449Z" fill="#F2B6A9"/>
<path d="M60.4891 113.736C88.1478 113.736 110.57 89.7963 110.57 60.2646C110.57 30.7329 88.1478 6.79272 60.4891 6.79272C32.8305 6.79272 10.4087 30.7329 10.4087 60.2646C10.4087 89.7963 32.8305 113.736 60.4891 113.736Z" fill="#FAC7BB"/>
<path d="M30.4465 100.029C36.6077 103.025 42.797 105.993 48.9582 108.988" stroke="#282828" stroke-width="0.75" stroke-miterlimit="10" stroke-linecap="round" stroke-linejoin="round"/>
<path d="M86.7441 100.029C80.5829 103.025 74.3936 105.993 68.2324 108.988" stroke="#282828" stroke-width="0.75" stroke-miterlimit="10" stroke-linecap="round" stroke-linejoin="round"/>
<path d="M61.1389 121H59.8106C57.917 121 56.3909 119.474 56.3909 117.58V111.334C56.3909 109.441 57.917 107.915 59.8106 107.915H61.1389C63.0324 107.915 64.5586 109.441 64.5586 111.334V117.58C64.5586 119.445 63.0324 121 61.1389 121Z" fill="#FAC7BB"/>
<path d="M6.22549 61.7063L2.49487 28.1592C2.49487 28.1592 12.1888 2.18632 55.7972 0.151453C99.4056 -1.88342 116.306 26.6613 116.306 26.6613L113.311 56.7039L6.22549 61.7063Z" fill="#282828"/>
<path d="M73.3477 92.2292C73.3477 92.2292 45.4813 118.032 24.6804 108.028C24.6804 108.028 4.21865 85.7006 6.19699 61.7061C8.2036 37.7116 20.5824 2.12964 55.7687 0.123031C90.955 -1.88358 97.3422 21.3196 97.3422 21.3196C97.3422 21.3196 101.327 22.5066 107.743 28.5264C114.13 34.518 118.143 87.7073 100.536 97.2881C100.592 97.2881 87.1114 104.693 73.3477 92.2292Z" fill="#282828"/>
<path d="M75.2417 79.8784C77.7288 73.9716 80.0745 68.2344 82.0811 62.3841C84.0312 56.5339 85.7269 50.6554 86.8857 44.6355C88.1292 38.6722 88.8075 32.5959 89.0618 26.463C89.2879 20.3301 88.9771 14.169 88.2988 7.78174C91.238 13.4907 92.8772 19.8497 93.4707 26.3217C94.1207 32.7937 93.6403 39.3505 92.425 45.7095C91.0967 52.0685 89.0336 58.2579 86.1508 64.0233C83.2681 69.8453 79.6788 75.2434 75.2417 79.8784Z" fill="#FAC7BB"/>
<path d="M84.0879 85.7852C89.3164 90.081 96.2406 92.3137 102.995 91.8332" stroke="white" stroke-miterlimit="10" stroke-linecap="round" stroke-linejoin="round"/>
<path d="M30.3616 104.495C42.6273 102.177 54.243 96.5531 63.5977 88.3289" stroke="white" stroke-miterlimit="10" stroke-linecap="round" stroke-linejoin="round"/>
</svg>
