<svg width="152" height="176" viewBox="0 0 152 176" fill="none" xmlns="http://www.w3.org/2000/svg">
<path d="M97.751 11.1049C97.751 11.1049 93.1038 -0.973757 69.6676 0.448442C58.0496 1.99083 46.3115 7.17885 37.7582 21.8215C20.0509 52.1083 35.9555 157.952 35.9555 157.952H110.831C110.431 157.471 133.326 65.6292 114.397 25.2869C111.072 18.1959 104.461 11.0849 97.751 11.1049Z" fill="#282828"/>
<path d="M151.815 189C151.815 189 146.967 169.21 144.644 164.082C138.614 150.681 93.3644 128.987 93.3644 128.987V82.2351H55.5459V128.987C55.5459 128.987 11.7582 150.36 6.42996 163.1C4.16646 168.529 0 189 0 189H151.815Z" fill="#F2B6A9"/>
<path d="M107.547 63.646C107.547 63.646 110.171 58.0774 115.599 60.8217C121.027 63.5459 118.564 81.053 110.431 83.2964C110.431 83.2964 107.506 84.1377 105.223 81.4936C105.223 81.4736 107.226 68.5536 107.547 63.646Z" fill="#F2B6A9"/>
<path d="M114.537 66.9915C114.537 66.9915 109.99 64.9684 106.765 73.8621" stroke="#282828" stroke-width="1.3968" stroke-miterlimit="10" stroke-linecap="round" stroke-linejoin="round"/>
<path d="M42.6861 63.646C42.6861 63.646 40.062 58.0774 34.6336 60.8217C29.2052 63.5459 31.6691 81.053 39.8016 83.2964C39.8016 83.2964 42.7261 84.1377 45.0097 81.4936C44.9896 81.4736 42.9866 68.5536 42.6861 63.646Z" fill="#F2B6A9"/>
<path d="M35.6953 66.9915C35.6953 66.9915 40.2424 64.9684 43.4673 73.8621" stroke="#282828" stroke-width="1.3968" stroke-miterlimit="10" stroke-linecap="round" stroke-linejoin="round"/>
<path d="M111.252 44.4965C111.252 55.0529 110.251 77.127 103.961 90.2272C98.0518 102.526 83.6495 109.757 74.7557 110.058C65.6817 110.378 53.1824 104.85 45.5506 88.8852C37.9188 72.9205 38.2793 44.6768 38.2793 44.6768C38.2793 44.6768 38.2793 6.97852 74.3751 6.97852C112.394 6.99855 111.252 44.4965 111.252 44.4965Z" fill="#FAC7BB"/>
<path d="M101.798 16.293C95.3476 9.58261 86.2936 6.11726 74.916 6.0171L73.6941 5.99707L73.9345 7.19893C77.1594 23.8847 83.3891 36.7847 92.4631 45.5582C97.5109 50.4458 103.66 53.8711 110.731 55.734L111.913 56.0545L111.973 54.8326C112.214 50.4258 112.254 46.7801 112.254 44.5367C112.274 43.8356 112.634 27.5704 101.798 16.293Z" fill="#282828"/>
<path d="M97.0701 12.2868C91.0408 8.12035 83.409 5.99707 74.375 5.99707C37.6983 5.99707 37.2776 44.3163 37.2776 44.6969C37.2776 44.777 37.1975 52.2286 38.1189 61.5029L38.2191 62.4844L39.2006 62.4043C45.29 61.9035 51.9804 57.8773 56.4072 55.2132L56.9881 54.8526C65.0807 49.9651 72.7124 43.8957 79.6832 36.7647C86.7742 29.5134 92.7234 21.7214 97.3706 13.6088L97.8313 12.8076L97.0701 12.2868Z" fill="#282828"/>
<path d="M97.5508 11.4856C97.0501 13.2083 96.1086 14.5303 95.047 15.7522C93.9453 16.934 92.7234 18.0157 91.0608 18.6967C91.5415 16.9741 92.503 15.652 93.5647 14.4302C94.6864 13.2283 95.8883 12.1466 97.5508 11.4856Z" fill="#FAC7BB"/>
<path d="M92.1826 31.8975C94.7666 40.2904 102.118 47.0208 110.691 48.8837" stroke="white" stroke-miterlimit="10" stroke-linecap="round" stroke-linejoin="round"/>
<path d="M42.8267 52.6494C57.1889 45.218 69.7884 34.4413 79.3632 21.4011" stroke="white" stroke-miterlimit="10" stroke-linecap="round" stroke-linejoin="round"/>
<path d="M37.7788 34.4411C42.1255 20.9002 52.9423 9.60268 66.2829 4.65503" stroke="white" stroke-miterlimit="10" stroke-linecap="round" stroke-linejoin="round"/>
</svg>
