<svg width="127" height="126" viewBox="0 0 127 126" fill="none" xmlns="http://www.w3.org/2000/svg">
<path d="M110.458 55.133C110.458 55.133 114.314 47.3046 122.26 51.1599C130.206 55.0152 126.615 79.6481 114.696 82.7971C114.696 82.7971 110.429 83.9743 107.074 80.2367C107.074 80.2367 109.988 62.049 110.458 55.133Z" fill="#F2B6A9"/>
<path d="M16.5474 55.133C16.5474 55.133 12.6921 47.3046 4.746 51.1599C-3.20008 55.0152 0.390393 79.6481 12.3095 82.7971C12.3095 82.7971 16.5768 83.9743 19.9318 80.2367C19.9318 80.2367 17.0183 62.049 16.5474 55.133Z" fill="#F2B6A9"/>
<path d="M63.4882 118.436C92.2897 118.436 115.638 93.5068 115.638 62.7548C115.638 32.0028 92.2897 7.07349 63.4882 7.07349C34.6866 7.07349 11.3384 32.0028 11.3384 62.7548C11.3384 93.5068 34.6866 118.436 63.4882 118.436Z" fill="#FAC7BB"/>
<path d="M32.2332 104.163C38.6489 107.283 45.094 110.373 51.5097 113.492" stroke="#282828" stroke-width="0.75" stroke-miterlimit="10" stroke-linecap="round" stroke-linejoin="round"/>
<path d="M90.8286 104.163C84.4128 107.283 77.9677 110.373 71.552 113.492" stroke="#282828" stroke-width="0.75" stroke-miterlimit="10" stroke-linecap="round" stroke-linejoin="round"/>
<path d="M64.1947 126H62.8115C60.8397 126 59.2505 124.411 59.2505 122.439V115.935C59.2505 113.963 60.8397 112.374 62.8115 112.374H64.1947C66.1665 112.374 67.7557 113.963 67.7557 115.935V122.439C67.7557 124.411 66.1665 126 64.1947 126Z" fill="#FAC7BB"/>
<path d="M7.01168 64.256L3.12695 29.3227C3.12695 29.3227 13.2214 2.27665 58.6317 0.157697C104.042 -1.96126 121.641 27.763 121.641 27.763L118.522 59.047L7.01168 64.256Z" fill="#282828"/>
<path d="M76.908 96.0402C76.908 96.0402 47.8901 122.91 26.2297 112.491C26.2297 112.491 4.9225 89.2419 6.98259 64.2559C9.07211 39.2699 21.9624 2.21764 58.6026 0.128114C95.2428 -1.96141 101.894 22.2005 101.894 22.2005C101.894 22.2005 106.044 23.4366 112.724 29.7052C119.375 35.9444 123.554 91.3314 105.22 101.308C105.278 101.308 91.2404 109.019 76.908 96.0402Z" fill="#282828"/>
<path d="M74.0828 98.4238C74.1122 98.3061 74.171 98.159 74.2005 98.0413C73.9945 98.365 73.759 98.6592 73.4941 98.8947C73.7296 98.7181 73.9062 98.6004 74.0828 98.4238Z" fill="#FAC7BB"/>
<path d="M74.5243 97.6289C74.4066 97.7761 74.2888 97.8938 74.23 98.0703C74.3183 97.9232 74.436 97.7761 74.5243 97.6289Z" fill="#FAC7BB"/>
<path d="M103.748 19.434C103.66 17.0796 103.601 13.8717 103.189 10.6344C101.629 9.69269 99.9809 8.75092 98.2151 7.86803C98.4211 7.72088 98.6271 7.6032 98.8331 7.45605C95.0955 8.4861 92.0054 11.5467 90.9753 15.2843C89.239 13.6068 87.5026 11.9293 85.7368 10.2518C85.4719 13.6363 85.2365 16.9913 84.9716 20.3757C81.2929 20.1109 77.5847 19.8754 73.906 19.6105C77.8496 20.8466 80.2628 24.9962 80.7337 29.087C81.2046 33.1777 80.1157 37.2685 78.9974 41.2415C77.7319 45.862 76.4664 50.5119 75.1715 55.1324C71.8459 55.6916 68.4909 56.2803 65.1653 56.8394C68.3731 60.2239 71.5516 63.6082 74.7595 66.9927C71.8165 68.7879 68.8735 70.5537 65.9599 72.3489C69.1972 73.6144 72.4345 74.9093 75.7012 76.1748C72.9936 77.764 70.3155 79.3238 67.608 80.9131C70.4627 81.0896 73.1703 82.7965 74.5829 85.2981C75.4952 86.9167 75.9367 90.5072 75.5541 93.7151C75.3775 95.216 75.0243 96.5992 74.4651 97.6292C74.524 97.5704 74.5829 97.482 74.6712 97.4232C80.1157 93.5384 84.4419 91.5961 88.0912 85.5336C89.1801 83.7383 89.9158 80.707 91.299 79.2061C92.8883 77.4991 93.8889 77.9995 96.361 78.2938C96.0667 75.5568 95.7724 72.7904 95.4781 70.0534C97.9502 69.8474 100.422 69.6414 102.894 69.406C101.305 66.9044 99.6866 64.4029 98.0974 61.9014C100.893 61.2245 103.66 60.5475 106.455 59.9001C106.338 58.3109 105.219 56.9865 104.189 55.7504C103.189 54.5144 102.188 53.0135 102.424 51.4242C102.688 49.835 104.955 48.7167 105.955 49.9527C102.953 46.2151 101.394 39.8583 102.394 35.179C103.689 29.7639 103.983 25.1139 103.748 19.434ZM97.3028 8.4272C97.5382 8.28005 97.7737 8.10346 98.0385 7.95631C97.7148 8.36833 97.4499 8.75093 97.1262 9.16295L97.3028 8.4272Z" fill="#FAC7BB"/>
<path d="M88.0908 89.3301C93.5354 93.8034 100.746 96.1284 107.779 95.6281" stroke="white" stroke-miterlimit="10" stroke-linecap="round" stroke-linejoin="round"/>
<path d="M32.1155 108.813C44.8881 106.399 56.9543 100.543 66.7251 91.9788" stroke="white" stroke-miterlimit="10" stroke-linecap="round" stroke-linejoin="round"/>
</svg>
