<svg width="152" height="176" viewBox="0 0 152 176" fill="none" xmlns="http://www.w3.org/2000/svg">
<path d="M92.2319 11.3734C92.2319 11.3734 92.6706 -1.15022 69.3584 0.26566C57.792 1.8012 46.106 6.96618 37.5907 21.5438C19.962 51.6962 35.796 157.07 35.796 157.07H110.339C109.94 156.591 132.734 65.157 113.889 24.9938C111.157 19.1508 106.451 17.8745 99.8298 16.1594C98.4538 15.8005 93.3885 11.3734 92.2319 11.3734Z" fill="#282828"/>
<path d="M151.141 187.98C151.141 187.98 146.315 168.277 144.001 163.172C137.999 149.831 92.9498 128.234 92.9498 128.234V81.689H55.2993V128.234C55.2993 128.234 11.706 149.512 6.40141 162.195C4.14796 167.599 0 187.98 0 187.98H151.141Z" fill="#F2B6A9"/>
<path d="M107.069 63.1826C107.069 63.1826 109.681 57.6387 115.086 60.3708C120.49 63.0829 118.037 80.5122 109.941 82.7458C109.941 82.7458 107.029 83.5833 104.756 80.951C104.756 80.951 106.75 68.0684 107.069 63.1826Z" fill="#F2B6A9"/>
<path d="M114.029 66.5126C114.029 66.5126 109.502 64.4985 106.291 73.3527" stroke="#282828" stroke-width="1.3968" stroke-miterlimit="10" stroke-linecap="round" stroke-linejoin="round"/>
<path d="M42.4966 63.1826C42.4966 63.1826 39.8842 57.6387 34.4799 60.3708C29.0756 63.0829 31.5285 80.5122 39.6249 82.7458C39.6249 82.7458 42.5365 83.5833 44.8099 80.951C44.7899 80.951 42.7957 68.0684 42.4966 63.1826Z" fill="#F2B6A9"/>
<path d="M35.5369 66.5126C35.5369 66.5126 40.0637 64.4985 43.2744 73.3527" stroke="#282828" stroke-width="1.3968" stroke-miterlimit="10" stroke-linecap="round" stroke-linejoin="round"/>
<path d="M110.758 44.1381C110.758 54.6475 109.761 76.6237 103.499 89.6657C97.6162 101.91 83.2778 109.109 74.4236 109.408C65.3898 109.727 52.946 104.223 45.3481 88.3296C37.7502 72.4358 38.1091 44.3176 38.1091 44.3176C38.1091 44.3176 38.1091 6.78662 74.0447 6.78662C111.895 6.78662 110.758 44.1381 110.758 44.1381Z" fill="#FAC7BB"/>
<path d="M104.815 19.9082C100.488 13.8657 93.1093 10.655 86.1296 10.5553L85.3718 10.5354L85.5712 11.6123C88.4429 26.6286 92.9697 38.2548 99.0122 46.1718C102.382 50.579 106.331 53.6501 110.778 55.3252L111.516 55.6044L111.496 54.5076C111.396 50.5391 111.237 47.2686 111.117 45.2345C111.117 44.6363 112.094 30.0586 104.815 19.9082Z" fill="#282828"/>
<path d="M83.4773 12.0512C78.8109 7.90329 75.0219 3.75537 68.0222 3.75537C39.5849 3.75537 37.1121 43.9585 37.1121 44.3175C37.1121 44.3972 37.0522 51.8157 37.7702 61.0488L37.8499 62.026L38.6077 61.9462C43.334 61.4477 48.5189 57.4393 51.9489 54.787L52.4076 54.4281C58.6893 49.5622 64.6121 43.5198 69.9965 36.4204C75.5005 29.2014 80.1071 21.4439 83.7166 13.3674L84.0756 12.5697L83.4773 12.0512Z" fill="#282828"/>
<path d="M93.488 30.1985C96.0606 38.5542 100.847 47.6876 109.402 49.5423" stroke="white" stroke-miterlimit="10" stroke-linecap="round" stroke-linejoin="round"/>
<path d="M42.7556 52.1748C55.7379 42.6425 66.4667 30.099 73.8851 15.8005" stroke="white" stroke-miterlimit="10" stroke-linecap="round" stroke-linejoin="round"/>
<path d="M37.6104 34.1069C41.9378 20.6261 52.7065 9.37881 65.9879 4.45312" stroke="white" stroke-miterlimit="10" stroke-linecap="round" stroke-linejoin="round"/>
<path d="M105.912 20.1078C106.55 20.1876 107.148 20.2873 107.388 20.5266C105.972 19.35 103.977 16.9968 102.163 16.9171C100.228 14.0055 97.277 10.8746 92.7102 9.53852C92.3912 9.43881 92.092 9.17955 92.0123 8.84053C91.4738 6.56714 89.6591 4.71253 87.7646 3.35647C87.5054 3.29665 87.266 3.21689 87.0267 3.177L90.6163 8.28216C88.6221 6.96598 86.588 5.94895 84.175 5.66976C82.9785 5.53016 81.782 5.55012 80.6054 5.74954C79.9872 5.84925 79.389 6.00876 78.8106 6.18824C78.6112 6.24806 77.4745 6.86627 77.3349 6.78651C79.728 7.98303 81.7421 9.91741 83.0383 12.2706C81.5227 12.2107 80.0869 11.9316 78.5913 11.8119C77.6341 11.7321 76.6968 11.772 75.7595 11.792C75.3008 11.8119 74.0046 12.131 73.6855 11.9714C76.7566 13.4671 79.5286 15.5411 81.8418 18.0338C82.46 18.7118 83.0782 19.4696 83.2976 20.367C83.5768 21.5237 83.1381 22.7401 82.6993 23.8569C81.7421 26.3297 80.5855 28.8225 80.0072 31.4149C82.3404 29.0618 84.4742 26.5092 86.3687 23.7971C85.9698 24.3953 87.0467 26.3696 87.3259 26.9679C87.9242 28.2242 88.3629 29.5603 88.9611 30.8167C88.6221 29.5603 88.2831 28.2641 88.4227 26.9679C88.5623 25.6716 89.2802 24.3555 90.4967 23.8768C90.8756 23.7373 91.2944 23.6774 91.7131 23.6974C92.8099 23.7572 93.8071 24.4352 94.525 25.2728C95.2429 26.1103 95.7016 27.1274 96.1802 28.1245C96.2998 25.552 95.5221 22.9396 94.0463 20.8257C98.4137 21.7829 102.502 24.0962 105.553 27.3667C105.214 25.1133 104.317 22.9396 102.96 21.1248C101.983 19.8286 101.963 19.6491 103.698 19.9283C104.117 20.0081 105.054 20.028 105.912 20.1078Z" fill="#FAC7BB"/>
</svg>
