<svg width="152" height="176" viewBox="0 0 152 176" fill="none" xmlns="http://www.w3.org/2000/svg">
<path d="M97.8339 10.9339C97.8339 10.9339 93.1828 -1.15504 69.7267 0.268366C58.0988 1.81206 46.3507 7.00448 37.7902 21.6596C20.0678 51.9721 35.9859 157.906 35.9859 157.906H110.925C110.524 157.424 133.439 65.5045 114.494 25.1278C111.166 18.0309 104.55 10.9339 97.8339 10.9339Z" fill="#282828"/>
<path d="M151.944 188.98C151.944 188.98 147.092 169.173 144.766 164.041C138.732 150.628 93.4436 128.916 93.4436 128.916V82.1245H55.593V128.916C55.593 128.916 11.7682 150.308 6.4354 163.058C4.16998 168.491 0 188.98 0 188.98H151.944Z" fill="#F2B6A9"/>
<path d="M107.637 63.5199C107.637 63.5199 110.264 57.9466 115.697 60.6932C121.13 63.4197 118.664 80.9416 110.524 83.187C110.524 83.187 107.597 84.029 105.312 81.3827C105.312 81.3827 107.317 68.4317 107.637 63.5199Z" fill="#F2B6A9"/>
<path d="M114.634 66.8677C114.634 66.8677 110.083 64.8428 106.855 73.7441" stroke="#282828" stroke-width="1.3968" stroke-miterlimit="10" stroke-linecap="round" stroke-linejoin="round"/>
<path d="M42.7017 63.5197C42.7017 63.5197 40.0754 57.9463 34.6424 60.6929C29.2094 63.4194 31.6753 80.9414 39.8148 83.1868C39.8148 83.1868 42.7418 84.0288 45.0273 81.3824C45.0273 81.3824 43.0225 68.4314 42.7017 63.5197Z" fill="#F2B6A9"/>
<path d="M35.7251 66.8674C35.7251 66.8674 40.276 64.8426 43.5037 73.7439" stroke="#282828" stroke-width="1.3968" stroke-miterlimit="10" stroke-linecap="round" stroke-linejoin="round"/>
<path d="M111.346 44.3741C111.346 54.9394 110.344 77.0322 104.049 90.1436C98.1344 102.453 83.7199 109.69 74.8186 109.991C65.7369 110.312 53.227 104.779 45.5887 88.8004C37.9504 72.8222 38.3113 44.5545 38.3113 44.5545C38.3113 44.5545 38.3113 6.82422 74.4377 6.82422C112.489 6.82422 111.346 44.3741 111.346 44.3741Z" fill="#FAC7BB"/>
<path d="M104.449 16.1262C99.5776 9.41012 92.7613 5.94184 84.1808 5.8416L83.2585 5.82153L83.439 7.02442C85.8648 23.7244 90.5761 36.6353 97.4124 45.4163C101.222 50.308 105.853 53.7362 111.185 55.6007L112.088 55.9214L112.128 54.6985C112.308 50.288 112.348 46.6392 112.348 44.3938C112.368 43.7122 112.629 27.4132 104.449 16.1262Z" fill="#282828"/>
<path d="M94.5058 6.88403C94.2652 7.68595 93.6838 8.62822 93.3831 9.43013C92.1201 12.8984 87.0479 21.1783 86.4666 22.0002C87.0078 23.985 87.7496 26.4108 88.3912 28.2351C89.5539 21.2985 94.5058 15.0837 100.6 11.455C99.0968 10.1318 96.3502 7.56566 94.5058 6.88403Z" fill="#FAC7BB"/>
<path d="M91.1177 12.1165C85.7048 7.94657 81.3142 3.77661 73.1748 3.77661C40.1758 3.77661 37.3089 44.1933 37.3089 44.5542C37.3089 44.6344 37.2288 52.0922 38.0708 61.3744L38.1509 62.3568L39.0331 62.2766C44.5262 61.7754 50.5406 57.7458 54.5101 55.0794L55.0514 54.7185C62.3288 49.8268 69.2053 43.7523 75.4602 36.6152C81.8355 29.3578 87.1883 21.5591 91.3783 13.4397L91.7993 12.6378L91.1177 12.1165Z" fill="#282828"/>
<path d="M92.2607 31.7434C94.8469 40.1435 102.205 46.8796 110.785 48.7441" stroke="white" stroke-miterlimit="10" stroke-linecap="round" stroke-linejoin="round"/>
<path d="M42.8621 52.5332C57.2365 45.0954 69.8466 34.3095 79.4296 21.2583" stroke="white" stroke-miterlimit="10" stroke-linecap="round" stroke-linejoin="round"/>
<path d="M37.8101 34.2898C42.1605 20.7374 52.9864 9.43037 66.3383 4.47852" stroke="white" stroke-miterlimit="10" stroke-linecap="round" stroke-linejoin="round"/>
</svg>
