<svg width="121" height="120" viewBox="0 0 121 120" fill="none" xmlns="http://www.w3.org/2000/svg">
<path d="M105.403 52.5077C105.403 52.5077 109.075 45.0521 116.642 48.7238C124.21 52.3956 120.791 75.8554 109.439 78.8544C109.439 78.8544 105.375 79.9756 102.18 76.416C102.18 76.416 104.983 59.0944 105.403 52.5077Z" fill="#F2B6A9"/>
<path d="M15.9639 52.5077C15.9639 52.5077 12.2922 45.0521 4.72446 48.7238C-2.84322 52.3956 0.57625 75.8554 11.9278 78.8544C11.9278 78.8544 15.9919 79.9756 19.1872 76.416C19.2152 76.416 16.4123 59.0944 15.9639 52.5077Z" fill="#F2B6A9"/>
<path d="M60.6972 112.797C88.1272 112.797 110.364 89.0544 110.364 59.7669C110.364 30.4793 88.1272 6.73706 60.6972 6.73706C33.2672 6.73706 11.0308 30.4793 11.0308 59.7669C11.0308 89.0544 33.2672 112.797 60.6972 112.797Z" fill="#FAC7BB"/>
<path d="M30.9031 99.2029C37.0133 102.174 43.1235 105.117 49.2617 108.088" stroke="#282828" stroke-width="0.75" stroke-miterlimit="10" stroke-linecap="round" stroke-linejoin="round"/>
<path d="M86.7356 99.2029C80.6254 102.174 74.4872 105.117 68.377 108.088" stroke="#282828" stroke-width="0.75" stroke-miterlimit="10" stroke-linecap="round" stroke-linejoin="round"/>
<path d="M61.3418 120H60.0245C58.1466 120 56.6331 118.487 56.6331 116.609V110.415C56.6331 108.537 58.1466 107.023 60.0245 107.023H61.3418C63.2197 107.023 64.7333 108.537 64.7333 110.415V116.609C64.7333 118.487 63.2197 120 61.3418 120Z" fill="#FAC7BB"/>
<path d="M6.88213 61.1963L3.18237 27.9266C3.18237 27.9266 12.7961 2.1684 56.0441 0.15035C99.292 -1.8677 116.053 26.4411 116.053 26.4411L113.082 56.2353L6.88213 61.1963Z" fill="#282828"/>
<path d="M73.4492 91.4668C73.4492 91.4668 45.8132 117.057 25.1842 107.135C25.1842 107.135 4.8916 84.9922 6.8536 61.1961C8.84362 37.3999 21.1201 2.11203 56.0155 0.122013C90.911 -1.86801 97.2454 21.1434 97.2454 21.1434C97.2454 21.1434 101.197 22.3206 107.56 28.2907C113.894 34.2327 117.874 86.9822 100.413 96.4839C100.469 96.4839 87.0991 103.827 73.4492 91.4668Z" fill="#282828"/>
<path d="M70.6467 93.7091C70.5627 93.9894 70.4505 94.2696 70.3665 94.5219C70.5346 93.9893 72.917 92.9243 73.4496 92.5319C74.5427 91.7471 75.5797 90.9342 76.5888 90.0654C78.6068 88.3276 80.4287 86.3936 82.0824 84.2915C85.642 79.7229 87.7161 74.3694 89.8743 69.044C93.3778 60.2991 96.4329 51.3861 98.0305 42.0806C99.3759 34.2887 99.3759 26.3847 99.0396 18.4807C98.9555 16.2384 98.8994 13.1833 98.507 10.1002C96.9935 9.17521 95.4239 8.27835 93.6861 7.4375C92.7892 8.69878 91.8643 9.87598 91.0234 10.9411C84.2966 19.6859 78.775 26.5809 75.9721 37.5961C72.7489 50.293 73.0852 62.9058 73.4215 75.8269C73.5056 79.0782 73.4776 82.3856 73.0011 85.6088C72.5807 88.4397 71.5717 91.0184 70.6467 93.7091Z" fill="#FAC7BB"/>
<path d="M84.1006 85.0762C89.2859 89.3365 96.1528 91.5508 102.852 91.0743" stroke="white" stroke-miterlimit="10" stroke-linecap="round" stroke-linejoin="round"/>
<path d="M30.8186 103.631C42.983 101.333 54.5026 95.7549 63.7801 87.5986" stroke="white" stroke-miterlimit="10" stroke-linecap="round" stroke-linejoin="round"/>
</svg>
