<svg width="337" height="311" viewBox="0 0 337 311" fill="none" xmlns="http://www.w3.org/2000/svg">
<path fill-rule="evenodd" clip-rule="evenodd" d="M177.33 15.21C219.63 26.93 203.09 91.47 204.93 110.76C206.23 124.39 209.19 136.03 207.94 150.68C206.43 168.42 200.21 172.56 198.75 178.52C197.24 184.68 210.26 208.26 196.37 225.09C179.38 245.69 131.79 255.83 106.77 253.71C72.1102 250.77 20.5802 236.13 9.34019 198.68C2.17019 174.79 23.0902 155.02 24.2702 142.69C25.1702 133.36 21.2402 116.65 28.7902 101.29C37.4402 83.7 49.2802 76.92 54.7302 66.59C73.9702 30.23 100.56 -19.73 177.33 15.21Z" fill="#273554"/>
<path fill-rule="evenodd" clip-rule="evenodd" d="M158.2 83.45C172.46 87.92 200.31 82.24 195.71 96.93C187.25 123.96 199.36 146.68 197.49 157.65C193.13 183.19 183.67 176.54 177.98 196.12C174.85 206.89 136.65 257.2 100.53 254.14C72.9904 251.81 38.5004 238.02 29.5704 208.27C23.8704 189.29 32.2504 179.97 33.1904 170.18C33.9004 162.77 34.1904 153.31 40.1904 141.11C47.0604 127.14 65.0204 121.01 72.6304 115.69C97.0404 98.6 125.69 65.89 158.2 83.45Z" fill="#1B2336"/>
<path fill-rule="evenodd" clip-rule="evenodd" d="M237.69 304.14C232.31 282.44 213.59 231.17 201.61 208.07C165.59 138.61 132.1 174.76 151.43 225.11C159.82 246.47 190.94 309.86 207.8 332.03C236.16 369.32 247.15 342.28 237.69 304.14Z" fill="#448FBC"/>
<path fill-rule="evenodd" clip-rule="evenodd" d="M239.25 288.04C236.23 278.81 230.12 265.06 225.17 254.8C215.66 272.08 207.27 318.24 212.96 332.39C218.65 346.54 231.79 309.45 239.25 288.04Z" fill="#2775A4"/>
<path fill-rule="evenodd" clip-rule="evenodd" d="M147.47 211.93C148.39 216.16 149.7 220.58 151.44 225.11C158.33 242.66 176.88 278.12 192.88 301.73C215.79 266.47 188.93 221.99 174.85 192.39C170.11 205.61 156.12 205.46 147.47 211.93Z" fill="#2775A4"/>
<path fill-rule="evenodd" clip-rule="evenodd" d="M30.1501 179.58C-12.8099 221.43 51.5501 320.72 49.2001 339.88C46.0701 365.44 39.5601 403.17 33.5301 417.43H193.2C190.67 381.49 183.83 319.14 185.07 302.66C185.62 295.38 198.38 280.72 195.36 260.75C192.13 239.33 171.86 171.7 166.85 170.01C126.68 156.5 58.3101 152.14 30.1501 179.58Z" fill="#448FBC"/>
<path fill-rule="evenodd" clip-rule="evenodd" d="M124.1 160.84C142.69 173.52 164.49 181.23 177.98 196.1C185.07 203.91 185.27 225.55 183.24 234.14C179.91 248.17 174.67 243.97 175.23 236.76C175.78 229.55 171.72 211.39 145.98 210.62C126.78 210.05 74.8801 186.69 62.5602 172.15C60.4502 169.67 58.5802 167.24 56.9102 164.87C76.6002 158.87 101.09 158.22 124.1 160.84Z" fill="#2775A4"/>
<path fill-rule="evenodd" clip-rule="evenodd" d="M61.0701 202.24C85.1101 223.71 115.58 285.64 118.15 322.13C120.73 358.63 57.6401 262.35 61.0701 202.24Z" fill="#2775A4"/>
<path fill-rule="evenodd" clip-rule="evenodd" d="M16.6001 236.1C21.5001 273.99 47.4101 324.15 49.2001 339.88C50.0801 347.61 29.1801 387.8 24.0001 417.43H193.2C190.67 381.49 183.83 319.14 185.07 302.66C185.11 302.17 185.2 301.64 185.34 301.09C185.25 301 185.17 300.9 185.08 300.81C173.02 309.42 158.21 305.29 146.85 304.6C135.48 303.91 90.6001 313.62 75.2001 311.83C59.8101 310.05 26.9601 223.88 16.6001 236.1Z" fill="#2775A4"/>
<path fill-rule="evenodd" clip-rule="evenodd" d="M86.3601 328.62C79.0901 361.63 104.47 400.85 128.64 369.48C141.91 352.25 159.68 284.56 160.43 258.16C146.6 255.69 130.48 243.24 126.43 236.91C98.7601 271.46 91.4501 308.15 86.3601 328.62Z" fill="#2775A4"/>
<path fill-rule="evenodd" clip-rule="evenodd" d="M126.68 254.93C132.03 240.57 143.63 200.78 150.68 195.92C154.19 193.5 161.83 190.43 168.6 189.05C173.37 188.08 189.28 187.6 187.67 191.98C186.29 195.71 176.58 193.52 171.15 194.93C168.3 195.67 164.99 199.24 162.79 202C160.05 205.44 171.56 199.54 178.44 197.69C185.32 195.84 198.85 199.63 197.3 203.06C195.75 206.49 187.5 203.51 182.63 204.79C177.76 206.08 171.24 211 169.55 212.97C167.86 214.94 180.81 208.46 185.88 209.59C190.95 210.72 195.74 218.88 193.2 221.14C190.67 223.39 188.69 218.32 185.31 218.32C181.93 218.32 175.73 220.57 172.92 222.83C170.1 225.08 188.97 218.32 187.28 225.08C185.59 231.84 175.45 230.43 170.38 237.19C165.31 243.95 158.83 249.02 156.3 254.93C153.77 260.84 150.95 269.57 149.26 274.64C147.58 279.73 125.27 260.56 126.68 254.93Z" fill="#2775A4"/>
<path fill-rule="evenodd" clip-rule="evenodd" d="M109.75 120.36L157.36 135.93L145.26 170.68C139.82 186.3 98.4201 177.59 103.02 154.31L109.75 120.36Z" fill="#FAC7BB"/>
<path fill-rule="evenodd" clip-rule="evenodd" d="M109.75 120.36L148.12 132.91C150.77 137.84 152.75 142.84 153.37 147.4L146.84 166.16C128.98 175.82 111.86 167.83 102.72 156.8C103.26 147.73 107.82 130.1 109.75 120.36Z" fill="#D4A79D"/>
<path fill-rule="evenodd" clip-rule="evenodd" d="M159.45 18.97C204.06 24.55 200.75 64 190.1 104.71C185.63 121.77 178.01 134.58 170.21 145.5C164.23 153.88 154.67 160.12 145.31 157.94C122.88 152.7 97.1704 131.82 93.2204 103.26C87.0304 58.55 109.93 12.77 159.45 18.97Z" fill="#FAC7BB"/>
<path opacity="0.15" fill-rule="evenodd" clip-rule="evenodd" d="M190.75 29.97C189.9 83.88 116.87 90.6 91.5904 81.38C77.5604 31.98 118.59 10.42 190.75 29.97Z" fill="black"/>
<path fill-rule="evenodd" clip-rule="evenodd" d="M185.21 52.4C172.18 73.07 108.56 85.61 91.3202 83.87C77.2802 34.47 104.04 -0.309996 176.2 19.24C206.06 27.79 208.9 76.81 190 105.09C193.73 86.24 193.33 63.94 185.21 52.4Z" fill="#273554"/>
<path fill-rule="evenodd" clip-rule="evenodd" d="M142.48 87.6C144.58 87.98 145.97 90.05 145.57 92.22C145.18 94.39 143.15 95.83 141.05 95.45C138.95 95.07 137.56 93 137.96 90.83C138.35 88.66 140.37 87.21 142.48 87.6Z" fill="#1F2A38"/>
<path fill-rule="evenodd" clip-rule="evenodd" d="M178.39 96.02C180.49 96.4 181.88 98.47 181.48 100.64C181.09 102.81 179.06 104.25 176.96 103.87C174.86 103.49 173.47 101.42 173.87 99.25C174.26 97.08 176.29 95.63 178.39 96.02Z" fill="#1F2A38"/>
<path fill-rule="evenodd" clip-rule="evenodd" d="M131.1 87.1C133.6 88.13 143.3 90.9 147.87 90.96C145.06 87.03 135.21 84.27 131.1 87.1ZM184.98 100.1C180.74 100.84 171.04 97.57 168.21 96.24C173.15 91.85 183.28 93.91 184.98 100.1Z" fill="#FAC7BB"/>
<path fill-rule="evenodd" clip-rule="evenodd" d="M164.62 133.23C158.19 127.97 146.42 126.49 136.5 128.23C141.45 128.84 161.86 133.26 164.62 133.23Z" fill="#D6A79C"/>
<path fill-rule="evenodd" clip-rule="evenodd" d="M152.14 120.39C163.6 118.67 161.84 109.34 161.36 100.66C165.77 108.6 165.63 125.57 152.14 120.39Z" fill="#D6A79C"/>
<path fill-rule="evenodd" clip-rule="evenodd" d="M171.77 85.01C169.82 83.41 170.77 80.31 173 81.48C179.16 84.7 185.21 87.42 189.88 88.68C192.3 89.34 192.23 91.38 189.72 91.32C184.46 91.2 175.59 88.14 171.77 85.01Z" fill="#273554"/>
<path fill-rule="evenodd" clip-rule="evenodd" d="M160.41 137.79C156.84 134.29 147.56 132.51 137.85 133.54C140.7 135.82 157.12 139.4 160.41 137.79Z" fill="#D6A79C"/>
<path fill-rule="evenodd" clip-rule="evenodd" d="M75.49 216.66C51.99 180.89 -6.46997 189.15 26.76 266.5C33.52 282.23 50.66 336.53 70.66 356.96C99.15 386.08 115.73 378.61 113.51 345.3C111.14 309.78 93.06 243.41 75.49 216.66Z" fill="#448FBC"/>
<path fill-rule="evenodd" clip-rule="evenodd" d="M112.34 329.13C110.01 317.68 103.06 285.07 98.6201 272.32C87.6801 286.04 76.0001 345.91 85.7201 357.57C95.4301 369.24 105.33 347.13 112.34 329.13Z" fill="#2775A4"/>
<path d="M131.1 87.1C133.7 88 143.36 90.47 147.87 90.96" stroke="#1F2A38" stroke-width="1.9199" stroke-miterlimit="22.9256" stroke-linecap="round" stroke-linejoin="round"/>
<path d="M168.22 96.24C169.95 97.01 179 100.08 184.99 100.1" stroke="#1F2A38" stroke-width="1.9199" stroke-miterlimit="22.9256" stroke-linecap="round" stroke-linejoin="round"/>
<path fill-rule="evenodd" clip-rule="evenodd" d="M150.33 80.32C152.83 79.94 153.61 76.77 151.08 76.64C144.1 76.26 137.47 75.51 132.78 74.21C130.35 73.53 129.36 75.34 131.56 76.58C136.18 79.16 145.43 81.07 150.33 80.32Z" fill="#273554"/>
<path fill-rule="evenodd" clip-rule="evenodd" d="M93.2204 103.26C109.04 170.51 204.44 149.76 186.11 217C182.49 230.27 176.77 230.45 177.3 223.57C177.83 216.69 168.52 196.64 143.96 195.91C125.64 195.37 76.1104 173.08 64.3504 159.2C27.3304 115.51 61.6504 89.63 93.2204 103.26Z" fill="#273554"/>
<path fill-rule="evenodd" clip-rule="evenodd" d="M142.94 176.09C118.14 169.7 28.2602 146.09 74.2102 58.07C56.4502 142.2 112.66 156.01 142.94 176.09Z" fill="#344569"/>
<path fill-rule="evenodd" clip-rule="evenodd" d="M92.0303 72.9C96.3603 72.72 100.18 80.09 100.57 89.36C100.96 98.63 97.7704 106.3 93.4404 106.48C89.1104 106.66 85.2903 99.29 84.9003 90.02C84.5203 80.75 87.7103 73.08 92.0303 72.9Z" fill="#FAC7BB"/>
<path d="M89.1304 81.47C95.8804 76.54 98.2404 89.28 96.4904 93.63" stroke="#E0B4AA" stroke-width="1.9199" stroke-miterlimit="22.9256" stroke-linecap="round" stroke-linejoin="round"/>
<path d="M96.9304 89.21C93.9704 89.56 90.1004 91.11 89.6304 94.92" stroke="#E0B4AA" stroke-width="1.9199" stroke-miterlimit="22.9256" stroke-linecap="round" stroke-linejoin="round"/>
<path fill-rule="evenodd" clip-rule="evenodd" d="M234.981 222.78C235.711 212.95 240.891 192.36 249.341 186.17C257.791 179.97 273.001 164.48 274.691 170.96C276.381 177.44 262.301 189.55 258.921 194.62C255.541 199.69 284.551 213.49 278.921 217.71C273.291 221.93 258.081 228.41 256.391 232.07C254.701 235.73 253.861 249.53 253.571 254.04C253.291 258.55 231.321 251.79 232.171 244.18C233.011 236.58 234.581 228.24 234.981 222.78Z" fill="#F2B6A9"/>
<path fill-rule="evenodd" clip-rule="evenodd" d="M277.74 218.54C271.42 222.74 257.97 228.65 256.38 232.08C255.62 233.72 255.04 237.39 254.59 241.34C248.57 239.61 244.11 237.8 243.46 236.15C241.24 230.47 252.82 213.19 255.41 210.16C261.95 211.08 271.31 215.28 277.74 218.54Z" fill="#FAC7BB"/>
<path fill-rule="evenodd" clip-rule="evenodd" d="M213.3 316.49C206.04 350.47 242.28 365.44 254.22 331.51C259.68 315.99 250.3 265.67 256.71 237.21C249.64 243.48 235.62 241.43 232.37 226.88C224.78 249.02 220.65 283.45 213.3 316.49Z" fill="#448FBC"/>
<path opacity="0.15" fill-rule="evenodd" clip-rule="evenodd" d="M250.231 233.64C249.311 235.39 247.151 236.07 245.391 235.16C243.631 234.24 242.96 232.08 243.87 230.32L262.72 194.26L269.13 197.47L250.231 233.64Z" fill="black"/>
<path d="M244.17 231.69L290.58 142.92" stroke="white" stroke-width="7.1997" stroke-miterlimit="22.9256" stroke-linecap="round" stroke-linejoin="round"/>
<path fill-rule="evenodd" clip-rule="evenodd" d="M278.93 207.69C281.18 202.06 288.58 186.03 288.6 179.81C288.62 173.58 287.41 162.13 283.4 164.8C279.4 167.47 283.87 175.87 282.42 179.24C280.97 182.61 264.12 198.17 262.15 200.14C260.18 202.1 275.27 213.32 278.93 207.69Z" fill="#F2B6A9"/>
<path fill-rule="evenodd" clip-rule="evenodd" d="M285.28 164.6C285.21 165.81 285.8 167.6 285.9 168C286.27 169.54 287.07 170.35 287.85 170.57C287.33 167.69 286.5 165.29 285.28 164.6Z" fill="#FAD9D2"/>
<path d="M175.71 179.33C195.42 176.66 210.04 191.59 209.15 205.19" stroke="#1B2336" stroke-width="1.1999" stroke-miterlimit="22.9256" stroke-linecap="round" stroke-linejoin="round"/>
<path fill-rule="evenodd" clip-rule="evenodd" d="M125.84 242.39C131.19 228.03 142.79 188.24 149.84 183.38C153.35 180.96 160.97 177.45 167.76 176.15C173.79 175 187.54 176.14 186.29 179.08C184.73 182.74 175.73 180.98 170.31 182.39C167.46 183.13 164.15 186.7 161.95 189.46C159.21 192.9 170.72 187 177.6 185.15C184.48 183.3 195.68 187.63 194.13 191.06C192.58 194.49 186.67 190.97 181.79 192.26C176.92 193.55 170.4 198.47 168.71 200.44C167.02 202.41 179.98 195.93 185.04 197.06C190.11 198.19 195.44 206.35 192.9 208.61C190.37 210.86 187.85 205.79 184.47 205.79C181.09 205.79 174.89 208.04 172.08 210.3C169.94 212.01 180.35 208.51 184.7 209.71C186.07 210.09 192.61 212.3 191.67 216.61C191.25 218.54 184.79 215.73 183.26 216.71C179.4 219.17 173.17 219.82 169.54 224.66C164.47 231.42 157.99 236.49 155.46 242.4C152.93 248.31 150.11 257.04 148.42 262.11C146.75 267.19 124.44 248.03 125.84 242.39Z" fill="#FAC7BB"/>
<path fill-rule="evenodd" clip-rule="evenodd" d="M82.3501 338.86C77.7901 370.59 95.7701 390.09 123.19 361.52C140.57 343.41 146.08 277.39 153.88 248.35C149.82 251.62 131.2 247.67 124.93 238.31C113.43 273.58 86.2601 311.62 82.3501 338.86Z" fill="#448FBC"/>
<path fill-rule="evenodd" clip-rule="evenodd" d="M255.79 180.98C263.91 174.15 273.38 165.93 274.69 170.96C275.98 175.91 268.08 184.13 262.76 190.01L255.79 180.98Z" fill="#F2B6A9"/>
<path opacity="0.15" fill-rule="evenodd" clip-rule="evenodd" d="M255.94 180.85C264.03 174.05 273.38 165.96 274.69 170.96C275.58 174.38 272.07 179.37 268.07 184.07L255.94 180.85Z" fill="black"/>
<path opacity="0.15" fill-rule="evenodd" clip-rule="evenodd" d="M283.75 198.96C281.22 194.17 272.43 187.58 264.26 186.46C256.09 185.33 249.87 184.64 249.03 189.15C248.18 193.66 263.13 195.19 267.08 196.32C271.02 197.45 274.97 203.64 274.97 203.64C274.97 203.64 269.06 199.42 265.68 198.29C262.3 197.16 247.17 192.08 245.2 198.56C243.23 205.04 250.19 204.21 256.67 206.46C263.15 208.71 269.34 212.94 269.34 212.94C269.34 212.94 260.61 209.56 256.67 208.43C252.73 207.3 243.89 205.38 244.17 210.73C244.45 216.08 255.6 212.88 260.34 215.97C265.07 219.07 271.71 221.49 276.72 218.78C281.73 216.08 281.79 211.57 280.94 209.6C280.09 207.63 287.41 204.31 283.75 198.96Z" fill="black"/>
<path d="M260.271 164.84C251.631 163.71 238.121 156.2 227.601 165.97C217.091 175.73 212.581 169.73 210.331 166.35" stroke="#273554" stroke-width="1.1999" stroke-miterlimit="22.9256" stroke-linecap="round" stroke-linejoin="round"/>
<path d="M265.03 156.19C268.74 149.67 254.55 137.98 263.53 123.81C272.51 109.64 257.59 99.67 262.96 94.34" stroke="#273554" stroke-width="1.1999" stroke-miterlimit="22.9256" stroke-linecap="round" stroke-linejoin="round"/>
<path d="M227.98 125.79C231.36 150.2 252.39 136.3 248.63 143.81C244.87 151.32 265.9 146.81 263.27 157.7" stroke="#273554" stroke-width="1.1999" stroke-miterlimit="22.9256" stroke-linecap="round" stroke-linejoin="round"/>
<path d="M288.67 117.98C257.59 85.37 239.36 136.46 272.98 138.93" stroke="#273554" stroke-width="1.1999" stroke-miterlimit="22.9256" stroke-linecap="round" stroke-linejoin="round"/>
<path d="M259.481 166.45C248.501 168.18 236.361 169.05 238.381 150.56C240.401 132.06 239.541 119.35 232.601 120.22" stroke="#273554" stroke-width="1.1999" stroke-miterlimit="22.9256" stroke-linecap="round" stroke-linejoin="round"/>
<path d="M269.75 139.08C272.55 132.73 275.02 125.54 263.53 123.81C252.04 122.07 244.51 119.51 246.14 115.47" stroke="#273554" stroke-width="1.1999" stroke-miterlimit="22.9256" stroke-linecap="round" stroke-linejoin="round"/>
<path fill-rule="evenodd" clip-rule="evenodd" d="M202.98 158.57C217.67 143.92 210.27 105.78 203.48 89.81C205.52 114.45 209.47 134.99 202.98 158.57Z" stroke="#273554" stroke-width="1.1999" stroke-miterlimit="22.9256" stroke-linecap="round" stroke-linejoin="round"/>
<path fill-rule="evenodd" clip-rule="evenodd" d="M276.47 121.45L247.19 175.14L270.33 181.3L292.42 139.4L276.47 121.45Z" fill="#B6C0D6"/>
<path fill-rule="evenodd" clip-rule="evenodd" d="M261.65 178.99L270.33 181.3L292.41 139.41L287.05 133.37C287.54 144.11 267.25 176.9 261.65 178.99Z" fill="#9BA7C2"/>
<path fill-rule="evenodd" clip-rule="evenodd" d="M291.26 141.6L277.93 133.13L287.74 142.81L286.11 146.7L273.62 141.89L284.47 148.19L278 160.65L265.76 157L276.85 162.58L273.83 169.33L260.78 162.51L272.56 171.43L269.88 176.32L256.68 171.74L270.91 180.53L291.26 141.6Z" fill="#9BA7C2"/>
<path d="M267.6 187.2L292.42 139.4" stroke="white" stroke-width="7.1997" stroke-miterlimit="22.9256" stroke-linecap="round" stroke-linejoin="round"/>
<path fill-rule="evenodd" clip-rule="evenodd" d="M285.67 197.15C283.14 192.36 273.56 184.76 265.39 183.63C257.22 182.5 252.14 183.69 251.3 186.56C250.45 189.43 264.36 191.31 268.31 192.43C272.25 193.56 276.1 200.81 276.1 200.81C276.1 200.81 270.19 196.68 266.81 195.56C263.43 194.43 246.49 190.81 244.9 195.66C243.31 200.5 254.4 201 260.88 203.25C267.36 205.5 270.47 210.11 270.47 210.11C270.47 210.11 261.74 206.73 257.8 205.6C253.86 204.47 244.24 204.52 243.95 207.95C243.65 211.38 254.95 212.03 259.21 214.61C269.92 221.12 267.5 224.42 271.41 222.25C273.86 220.89 276.2 219.95 278.65 218.55C284.56 215.17 284.28 210.66 283.44 208.69C282.57 206.73 289.33 202.51 285.67 197.15Z" fill="#FAC7BB"/>
<path fill-rule="evenodd" clip-rule="evenodd" d="M87.2202 57.46C123.1 68.99 166.67 46.57 178.21 30.55C162.58 36.24 117.81 54.96 87.2202 57.46Z" fill="#344569"/>
<path d="M161.65 13.94C133.78 -4.17999 84.5402 -8.35999 72.9302 33.45" stroke="#273554" stroke-width="1.1999" stroke-miterlimit="22.9256" stroke-linecap="round" stroke-linejoin="round"/>
<path d="M75.71 41.81C64.1 59.93 32.05 67.82 28.79 82.69" stroke="#273554" stroke-width="1.1999" stroke-miterlimit="22.9256" stroke-linecap="round" stroke-linejoin="round"/>
<path d="M28.3303 111.95C16.7203 132.85 16.9303 148.22 27.2403 156.89" stroke="#273554" stroke-width="1.1999" stroke-miterlimit="22.9256" stroke-linecap="round" stroke-linejoin="round"/>
<path d="M189.05 25.55C208.1 26.48 219.71 42.74 208.1 79.43" stroke="#273554" stroke-width="1.1999" stroke-miterlimit="22.9256" stroke-linecap="round" stroke-linejoin="round"/>
<path d="M202.99 109.17C213.67 124.5 216 144.94 215.07 154.69" stroke="#273554" stroke-width="1.1999" stroke-miterlimit="22.9256" stroke-linecap="round" stroke-linejoin="round"/>
<path d="M27.8303 149.73C11.8903 159.44 -0.939737 170.53 1.14026 185.43" stroke="#273554" stroke-width="1.1999" stroke-miterlimit="22.9256" stroke-linecap="round" stroke-linejoin="round"/>
<path fill-rule="evenodd" clip-rule="evenodd" d="M84.3901 35.02C105.11 19.44 127.17 9.37004 154.49 12.23C129.26 4.79004 100.79 7.30004 84.3901 35.02Z" fill="#344569"/>
<path d="M178.5 15.86C146.82 -16.65 133.49 52.12 112.23 43.78" stroke="#1B2336" stroke-width="1.1999" stroke-miterlimit="22.9256" stroke-linecap="round" stroke-linejoin="round"/>
<path d="M191.42 29.19C199.76 47.53 183.08 75.04 157.66 80.45" stroke="#1B2336" stroke-width="1.1999" stroke-miterlimit="22.9256" stroke-linecap="round" stroke-linejoin="round"/>
<path d="M56.3401 87.69C38.8401 125.43 54.7701 143.91 72.3701 158.22" stroke="#1B2336" stroke-width="1.1999" stroke-miterlimit="22.9256" stroke-linecap="round" stroke-linejoin="round"/>
<path opacity="0.1" fill-rule="evenodd" clip-rule="evenodd" d="M133.7 99.5C127.38 99 122.25 101.37 122.24 104.8C122.23 108.23 127.35 111.41 133.67 111.91C139.99 112.41 145.12 110.04 145.13 106.61C145.13 103.19 140.02 100 133.7 99.5Z" fill="#F4799A"/>
<path opacity="0.1" fill-rule="evenodd" clip-rule="evenodd" d="M177.32 111.93C181.71 114.31 183.93 118.37 182.27 121.01C180.61 123.65 175.71 123.86 171.32 121.48C166.93 119.1 164.71 115.04 166.37 112.4C168.03 109.76 172.93 109.55 177.32 111.93Z" fill="#F4799A"/>
<path d="M46.9003 134.92C14.3703 167.58 42.7503 178.77 34.7603 209.07" stroke="#1B2336" stroke-width="1.1999" stroke-miterlimit="22.9256" stroke-linecap="round" stroke-linejoin="round"/>
<path d="M189.78 39.52C185.21 52.41 137.65 82.33 88.1602 68.03" stroke="#1B2336" stroke-width="1.1999" stroke-miterlimit="22.9256" stroke-linecap="round" stroke-linejoin="round"/>
<path fill-rule="evenodd" clip-rule="evenodd" d="M246.29 205.73C244.94 206.21 243.86 206.9 243.77 207.92C243.63 209.6 246.29 209.15 247.33 209.01C249.41 208.72 249.91 207.67 249.69 206.77C249.28 205 247.63 205.25 246.29 205.73Z" fill="#FAD9D2"/>
<path fill-rule="evenodd" clip-rule="evenodd" d="M244.58 195.53C243.78 197.98 246.55 197.76 248.4 197.75C252.87 197.72 251.58 194.32 250.15 194.02C248.33 193.65 245.32 193.28 244.58 195.53Z" fill="#FAD9D2"/>
<path fill-rule="evenodd" clip-rule="evenodd" d="M255.9 183.54C253.33 184.03 251.05 184.79 250.96 186.35C250.88 187.84 254.73 187.47 255.33 187.46C259.8 187.43 258.51 184.03 257.08 183.73C256.77 183.67 256.36 183.6 255.9 183.54Z" fill="#FAD9D2"/>
<path fill-rule="evenodd" clip-rule="evenodd" d="M186.58 208.82C187.57 209.8 188.73 211.76 188.07 212.63C187.82 212.95 187.29 212.61 186.93 212.35C184.66 210.7 185.34 209.26 185.79 208.98C185.99 208.85 186.26 208.8 186.58 208.82Z" fill="#FAD9D2"/>
<path fill-rule="evenodd" clip-rule="evenodd" d="M188.56 199.9C189.72 201.96 190.39 204.25 189.31 205.15C188.49 205.83 187.64 204.21 187.17 203.16C186.01 200.6 187.32 199.69 187.85 199.67C188.07 199.66 188.31 199.74 188.56 199.9Z" fill="#FAD9D2"/>
<path fill-rule="evenodd" clip-rule="evenodd" d="M188.81 185.25C190.04 186.18 191.02 187.05 190.59 188C190.17 188.93 187.76 188.13 187.04 187.88C184.38 186.98 184.6 185.4 184.96 184.99C185.4 184.48 186.58 184.36 188.2 184.94C188.4 185.05 188.61 185.15 188.81 185.25Z" fill="#FAD9D2"/>
<path fill-rule="evenodd" clip-rule="evenodd" d="M179.35 174.36C181.68 174.9 183.35 175.51 182.91 176.53C182.6 177.26 181.51 177.3 180.73 177.34C177.93 177.47 177.56 175.92 177.74 175.41C177.9 174.97 178.45 174.58 179.35 174.36Z" fill="#FAD9D2"/>
<path fill-rule="evenodd" clip-rule="evenodd" d="M286.54 83.59C284.45 82.22 281.44 82.77 280.01 84.95L279.06 86.4C277.58 88.65 278.32 91.56 280.42 92.93C282.67 94.41 285.47 93.83 286.95 91.57L287.9 90.12C289.33 87.95 288.8 85.07 286.54 83.59ZM323.27 64.63C329.39 55.29 326.71 42.71 317.37 36.59C311.17 32.53 303.48 32.32 297.31 35.41C294.92 36.6 294.03 39.36 295.14 41.7C296.33 44.09 299.17 45.03 301.56 43.84C304.83 42.19 308.89 42.32 312.19 44.48C317.26 47.81 318.78 54.44 315.45 59.51C312.18 64.5 305.43 65.83 300.36 62.51C298.27 61.14 295.2 61.77 293.83 63.87C293.78 63.95 293.78 63.95 293.8 64.08C293.75 64.16 293.67 64.11 293.61 64.19L288.12 72.56C286.64 74.81 287.38 77.72 289.48 79.09C291.73 80.57 294.53 79.99 296.01 77.73L299.44 72.5C308.11 75.63 318.04 72.6 323.27 64.63Z" fill="#AADFFF"/>
<path fill-rule="evenodd" clip-rule="evenodd" d="M251.99 73.2C250.63 73 249.26 73.97 249.06 75.39L248.92 76.33C248.71 77.79 249.75 79.06 251.11 79.26C252.57 79.47 253.83 78.54 254.04 77.08L254.18 76.14C254.38 74.72 253.45 73.41 251.99 73.2ZM265.86 55.28C266.75 49.22 262.5 43.59 256.44 42.7C252.42 42.11 248.55 43.79 246.19 46.75C245.28 47.9 245.47 49.47 246.57 50.38C247.72 51.29 249.34 51.11 250.26 49.96C251.5 48.38 253.55 47.51 255.69 47.82C258.98 48.3 261.27 51.25 260.79 54.54C260.32 57.78 257.27 60 253.98 59.52C252.62 59.32 251.25 60.35 251.05 61.7C251.04 61.75 251.04 61.75 251.09 61.81C251.08 61.86 251.03 61.85 251.02 61.91L250.23 67.34C250.02 68.8 251.06 70.07 252.42 70.27C253.88 70.48 255.14 69.55 255.35 68.09L255.85 64.69C260.87 64.26 265.11 60.45 265.86 55.28Z" fill="#62AFDD"/>
<path fill-rule="evenodd" clip-rule="evenodd" d="M308.58 109.02C307.9 107.83 306.3 107.34 305.06 108.04L304.23 108.51C302.94 109.24 302.58 110.84 303.25 112.03C303.98 113.32 305.49 113.74 306.77 113.01L307.6 112.54C308.84 111.85 309.3 110.31 308.58 109.02ZM331.24 109C336.57 105.99 338.42 99.18 335.41 93.85C333.41 90.31 329.71 88.28 325.93 88.24C324.46 88.22 323.34 89.34 323.29 90.76C323.27 92.23 324.42 93.4 325.88 93.42C327.89 93.44 329.84 94.52 330.9 96.4C332.54 99.29 331.61 102.91 328.72 104.55C325.87 106.16 322.25 105.12 320.61 102.22C319.93 101.03 318.28 100.57 317.09 101.24C317.04 101.27 317.04 101.27 317.02 101.34C316.97 101.37 316.95 101.32 316.9 101.35L312.12 104.05C310.83 104.78 310.47 106.38 311.14 107.57C311.87 108.86 313.38 109.28 314.66 108.55L317.65 106.86C321.09 110.56 326.69 111.57 331.24 109Z" fill="#62AFDD"/>
</svg>
