<svg width="374" height="331" viewBox="0 0 374 331" fill="none" xmlns="http://www.w3.org/2000/svg">
<path fill-rule="evenodd" clip-rule="evenodd" d="M293.014 56.7011C290.614 55.5927 287.549 56.6378 286.397 59.1187L285.626 60.7762C284.431 63.3521 285.647 66.2764 288.046 67.3849C290.625 68.5779 293.468 67.5433 294.662 64.9673L295.434 63.3099C296.586 60.8184 295.593 57.8941 293.014 56.7011ZM328.495 31.2586C333.462 20.5643 328.717 7.84299 318.021 2.88116C310.918 -0.412648 302.843 0.548046 296.861 4.72865C294.546 6.34388 294.039 9.35265 295.561 11.633C297.178 13.945 300.285 14.4939 302.611 12.8787C305.781 10.6512 310.041 10.1655 313.825 11.918C319.638 14.6101 322.248 21.3138 319.542 27.1202C316.89 32.8316 310.041 35.2597 304.228 32.5677C301.828 31.4592 298.721 32.5888 297.611 34.9852C297.569 35.0803 297.569 35.0803 297.622 35.2175C297.58 35.3125 297.484 35.2703 297.442 35.3547L292.993 44.9406C291.798 47.5165 293.014 50.4408 295.413 51.5493C297.992 52.7422 300.835 51.7077 302.029 49.1317L304.809 43.1459C314.332 45.0778 324.256 40.3799 328.495 31.2586Z" fill="#6A92E8"/>
<path fill-rule="evenodd" clip-rule="evenodd" d="M255.282 51.1587C253.834 51.1587 252.555 52.3833 252.555 53.893V54.8959C252.555 56.4584 253.844 57.6302 255.292 57.6196C256.856 57.6196 258.03 56.4478 258.019 54.8853V53.8824C258.019 52.3728 256.846 51.1481 255.282 51.1587ZM267.035 30.3085C267.024 23.8475 261.729 18.6112 255.25 18.6218C250.959 18.6218 247.164 20.9655 245.156 24.4282C244.374 25.7689 244.829 27.3842 246.107 28.1654C247.45 28.9466 249.12 28.4927 249.902 27.1625C250.959 25.3255 252.967 24.0903 255.25 24.0903C258.769 24.0903 261.613 26.8141 261.613 30.3296C261.613 33.7817 258.769 36.5688 255.26 36.5794C253.812 36.5794 252.523 37.8673 252.534 39.3137C252.534 39.3664 252.534 39.3664 252.586 39.4298C252.586 39.4826 252.534 39.4826 252.534 39.5459V45.3418C252.534 46.9042 253.823 48.076 255.271 48.0655C256.835 48.0655 258.008 46.8936 257.998 45.3312V41.7101C263.198 40.4538 267.035 35.8193 267.035 30.3085Z" fill="#234387"/>
<path fill-rule="evenodd" clip-rule="evenodd" d="M319.966 79.8845C319.078 78.7444 317.323 78.4804 316.129 79.3989L315.336 80.0112C314.1 80.9719 313.962 82.7033 314.85 83.8434C315.812 85.0786 317.45 85.2792 318.687 84.329L319.479 83.7167C320.674 82.7877 320.917 81.1091 319.966 79.8845ZM343.662 76.3796C348.767 72.4101 349.665 65.0201 345.691 59.9105C343.059 56.5217 338.874 54.9698 334.911 55.4976C333.378 55.6982 332.374 57.0495 332.543 58.5381C332.744 60.0689 334.128 61.1246 335.661 60.9134C337.764 60.6178 339.963 61.4518 341.368 63.2571C343.524 66.0336 343.112 69.9503 340.333 72.1039C337.606 74.2259 333.653 73.6875 331.497 70.9216C330.609 69.7814 328.801 69.5491 327.66 70.4359C327.618 70.4676 327.618 70.4676 327.607 70.5521C327.565 70.5837 327.533 70.5415 327.48 70.5732L322.904 74.1309C321.667 75.0916 321.53 76.823 322.418 77.9631C323.379 79.1983 325.018 79.3989 326.254 78.4488L329.119 76.2318C333.283 79.5678 339.297 79.7578 343.662 76.3796Z" fill="#234387"/>
<path fill-rule="evenodd" clip-rule="evenodd" d="M184.246 184.072C168.392 183.143 124.255 184.727 96.4257 193.901C74.8432 201.016 83.2035 242.896 84.8946 286.888C86.4377 327.131 90.5703 355.688 89.9467 377.193C89.302 399.395 79.1555 429.408 81.8929 451.578C84.6727 453.056 263.505 451.578 280.584 451.578C279.845 435.384 272.51 402.678 273.144 379.452C273.598 362.983 280.056 323.215 283.375 291.121C288.205 244.459 287.93 200.753 272.922 196.308C250.98 189.815 210.352 182.52 184.246 184.072Z" fill="#2C3E82"/>
<path fill-rule="evenodd" clip-rule="evenodd" d="M83.9009 293.327C77.6862 297.033 40.0385 318.211 23.8569 314.389C11.3958 311.443 0.424871 294.362 14.1649 278.252C37.8083 250.529 65.7112 211.014 96.4255 193.901C103.528 189.953 93.7937 287.437 83.9009 293.327Z" fill="#213369"/>
<path fill-rule="evenodd" clip-rule="evenodd" d="M283.375 291.121C297.664 298.944 325.25 317.757 336.866 323.31C371.533 339.863 380.686 299.619 366.65 283.763C340.417 254.118 299.239 207.509 272.911 196.319C257.491 189.763 277.393 287.848 283.375 291.121Z" fill="#213369"/>
<path fill-rule="evenodd" clip-rule="evenodd" d="M289.114 118.713C274.412 124.076 255.937 118.64 259.604 112.939C263.272 107.238 274.792 114.881 284.368 110.669C293.944 106.446 297.569 115.631 289.114 118.713Z" fill="#E8BBB2"/>
<path d="M270.364 85.2581C252.386 128.616 262.807 148.843 292.073 170.633" stroke="#253757" stroke-width="1.1999" stroke-miterlimit="22.9256" stroke-linecap="round" stroke-linejoin="round"/>
<path d="M254.024 86.8099C271.527 97.4304 259.002 131.551 286.081 149.276" stroke="#253757" stroke-width="1.1999" stroke-miterlimit="22.9256" stroke-linecap="round" stroke-linejoin="round"/>
<path d="M256.92 78.7866C266.749 93.3342 279.697 136.259 254.204 159.538" stroke="#253757" stroke-width="1.1999" stroke-miterlimit="22.9256" stroke-linecap="round" stroke-linejoin="round"/>
<path d="M243.476 91.8034C262.089 94.0415 284.855 128.5 273.387 164.352" stroke="#253757" stroke-width="1.1999" stroke-miterlimit="22.9256" stroke-linecap="round" stroke-linejoin="round"/>
<path fill-rule="evenodd" clip-rule="evenodd" d="M318.729 177.727C316.742 189.119 306.754 197.976 300.307 193.204C297.009 183.312 298.351 175.785 293.786 171.288C274.972 152.792 288.617 136.006 287.455 128.394C283.438 105.422 256.212 125.681 252.291 119.21C247.809 111.82 276.769 105.507 291.407 111.492C313.635 120.593 311.172 154.491 318.729 177.727Z" fill="#FFD9D1"/>
<path fill-rule="evenodd" clip-rule="evenodd" d="M285.256 159.569C279.506 146.035 285.795 136.829 287.433 133.525C290.519 132.997 293.32 133.229 295.212 134.834C299.112 136.059 282.011 150.585 285.256 159.569Z" fill="#E8BBB2"/>
<path fill-rule="evenodd" clip-rule="evenodd" d="M318.919 168.532C333.758 205.999 356.218 242.854 358.427 258.489C362.76 289.221 331.507 295.143 320.124 275.676C312.07 261.899 296.555 199.137 293.088 183.629C300.497 185.244 315.03 178.266 318.919 168.532Z" fill="white"/>
<path fill-rule="evenodd" clip-rule="evenodd" d="M325.99 178.762C342.541 228.919 375.93 263.124 373.583 302.248C371.987 328.884 349.993 338.818 325.662 310.916C312.091 295.354 311.151 249.832 292.897 193.964C306.902 195.822 319.913 187.071 325.99 178.762Z" fill="#2C3E82"/>
<path fill-rule="evenodd" clip-rule="evenodd" d="M220.086 211.215L187.141 251.986L154.81 208.596C176.54 207.498 198.102 212.534 220.086 211.215Z" fill="#FBC9BE"/>
<path fill-rule="evenodd" clip-rule="evenodd" d="M168.878 143.913L220.541 151.504L211.293 206.717C207.181 231.262 155.434 224.168 159.63 199.127L168.878 143.913Z" fill="#FBC9BE" stroke="#FBC9BE" stroke-width="0.216" stroke-miterlimit="22.9256"/>
<path fill-rule="evenodd" clip-rule="evenodd" d="M164.82 168.627C178.105 158.271 204.486 161.607 218.607 163.011L217.042 172.375C210.479 188.707 200.068 203.782 163.699 203.255C160.761 192.349 163.033 179.332 164.82 168.627Z" fill="#D4A59B"/>
<path fill-rule="evenodd" clip-rule="evenodd" d="M167.642 214.213L187.142 251.975L155.73 218.985L167.642 214.213Z" fill="#F7F9FC"/>
<path fill-rule="evenodd" clip-rule="evenodd" d="M164.248 171.52L167.641 214.213L138.607 236.794L144.473 184.41L164.248 171.52Z" fill="white"/>
<path fill-rule="evenodd" clip-rule="evenodd" d="M206.61 215.638L187.142 251.975L218.532 220.42L206.61 215.638Z" fill="#F7F9FC"/>
<path fill-rule="evenodd" clip-rule="evenodd" d="M217.042 172.386L206.61 215.638L231.015 243.773L233.615 188.992L217.042 172.386Z" fill="white"/>
<path fill-rule="evenodd" clip-rule="evenodd" d="M127.489 118.492C128.112 118.597 131.801 119.326 134.697 126.346C136.124 129.809 134.158 133.863 134.094 141.76C130.818 140.662 127.404 137.062 125.364 132.1C122.468 125.09 123.123 117.753 127.489 118.492Z" fill="#C9A198"/>
<path fill-rule="evenodd" clip-rule="evenodd" d="M189.065 187.472C166.035 192.877 145.753 167.55 138.016 151.145C134.063 142.752 130.744 133.092 128.662 123.612C120.418 85.9759 118.716 46.5347 158.393 37.1283C198.588 30.2768 218.247 69.3696 225.403 107.227C226.956 115.451 227.865 130.653 226.058 139.289C220.139 167.645 209.295 182.721 189.065 187.472Z" fill="#FBC9BE"/>
<path opacity="0.2" fill-rule="evenodd" clip-rule="evenodd" d="M170.357 67.0576C150.91 75.1338 139.421 79.7472 137.466 81.7109C135.511 83.685 130.004 88.1929 127.668 100.429C125.332 112.654 119.614 81.6792 124.064 74.6482C128.524 67.6172 161.173 60.66 170.357 67.0576Z" fill="black"/>
<path fill-rule="evenodd" clip-rule="evenodd" d="M131.473 135.647C118.547 105.39 106.435 64.904 128.641 45.1517C140.489 34.6158 161.913 28.4926 181.984 33.5917C227.559 31.2692 232.621 72.4418 225.952 120.318C213.618 115.557 211.208 59.5516 197.711 57.5352C196.485 57.3557 148.469 75.2816 135.352 77.2875C127.774 78.4487 128.493 120.582 131.473 135.647Z" fill="#253757"/>
<path fill-rule="evenodd" clip-rule="evenodd" d="M183.062 147.218C170.178 146.172 174.184 129.154 171.774 115.831C170.411 133.525 165.105 151.873 183.062 147.218Z" fill="#D4A59B"/>
<path fill-rule="evenodd" clip-rule="evenodd" d="M163.393 160.013C170.791 155.188 193.547 153.035 200.216 154.164C193.652 155.948 191.158 159.031 184.457 159.833C176.129 160.836 170.115 159.633 163.393 160.013Z" fill="#D4A59B"/>
<path fill-rule="evenodd" clip-rule="evenodd" d="M174.606 165.439C181.741 167.477 187.152 164.975 192.236 163.539C190.915 168.448 178.115 170.612 174.606 165.439Z" fill="#D4A59B"/>
<path fill-rule="evenodd" clip-rule="evenodd" d="M160.93 108.568C164.439 107.892 164.101 114.797 160.518 115.008C153.109 115.43 144.093 114.121 139.517 114.512C136.314 114.786 136.008 110.743 139.147 110.067C145.393 108.695 151.46 110.384 160.93 108.568Z" fill="#253757"/>
<path fill-rule="evenodd" clip-rule="evenodd" d="M184.911 103.49C181.772 104.335 184.288 110.152 187.406 109.244C194.603 107.143 199.613 101.959 203.217 99.9535C206.674 98.0216 205.278 95.8468 201.78 96.3008C196.178 97.0292 191.359 101.769 184.911 103.49Z" fill="#253757"/>
<path opacity="0.2" fill-rule="evenodd" clip-rule="evenodd" d="M135.025 144.04C134.929 132.965 143.723 91.6979 141.895 89.6392C137.625 84.8358 131.959 100.027 130.691 116.359C128.123 92.8697 145.266 73.8881 137.825 72.7057C133.703 72.0511 123.536 88.5941 119.393 98.1588C120.576 110.479 131.019 134.496 135.025 144.04Z" fill="black"/>
<path fill-rule="evenodd" clip-rule="evenodd" d="M83.3306 111.83C84.62 98.0427 81.872 84.6458 75.8476 85.7859C72.1695 86.4933 74.3256 97.2298 74.0508 105.507C73.5012 122.007 66.3458 145.571 80.2444 152.866C102.324 164.457 112.449 133.916 125.174 115.641C135.374 101.009 144.886 95.7413 143.174 91.0539C140.849 84.6986 126.538 93.4293 117.036 107.892C124.593 84.2446 144.664 76.7068 137.826 72.674C131.495 68.9474 113.96 85.9654 104.099 101.125C109.32 83.2522 124.276 75.25 119.499 68.504C114.922 62.0747 93.9421 86.4933 83.3306 111.83Z" fill="#FFD9D1"/>
<path fill-rule="evenodd" clip-rule="evenodd" d="M73.5224 92.7641C73.3744 90.1565 73.9135 85.8281 75.5728 85.7648C78.3208 85.6592 78.3208 90.8427 78.2469 92.7219C78.1729 94.7805 73.6492 95.0022 73.5224 92.7641Z" fill="#FFE8E3"/>
<path fill-rule="evenodd" clip-rule="evenodd" d="M111.318 70.721C113.242 68.9579 117.121 66.4665 118.22 67.7122C120.048 69.7708 116.55 73.4341 115.06 74.5637C113.422 75.8095 109.659 72.2306 111.318 70.721Z" fill="#FFE8E3"/>
<path fill-rule="evenodd" clip-rule="evenodd" d="M130.258 74.0359C132.097 72.6846 137.023 71.3122 137.762 72.7902C138.999 75.25 134.57 77.8787 132.837 78.5965C130.935 79.3883 128.451 75.3661 130.258 74.0359Z" fill="#FFE8E3"/>
<path fill-rule="evenodd" clip-rule="evenodd" d="M134.38 90.7161C136.198 89.3542 141.134 88.1613 141.895 89.6287C143.153 92.078 138.735 94.5166 137.012 95.2556C135.109 96.058 132.583 92.0674 134.38 90.7161Z" fill="#FFE8E3"/>
<path fill-rule="evenodd" clip-rule="evenodd" d="M68.5125 136.819C51.3903 170.021 31.2981 211.331 29.0997 226.966C24.7663 257.697 56.0196 263.62 67.4027 244.153C75.4565 230.376 95.7389 168.437 99.195 152.929C91.786 154.544 72.402 146.552 68.5125 136.819Z" fill="white"/>
<path fill-rule="evenodd" clip-rule="evenodd" d="M61.9699 146.362C24.7872 221.729 3.99749 247.763 0.995825 277.418C-3.20017 318.749 40.5777 324.999 56.3682 301.319C68.9562 282.443 79.7791 230.629 97.5672 163.074C87.4524 167.751 67.2862 159.654 61.9699 146.362Z" fill="#2C3E82"/>
<path d="M191.464 114.913C194.889 112.179 200.765 110.943 205.025 111.851" stroke="#253757" stroke-width="1.9199" stroke-miterlimit="22.9256" stroke-linecap="round" stroke-linejoin="round"/>
<path fill-rule="evenodd" clip-rule="evenodd" d="M200.226 110.743C202.023 110.658 203.545 112.041 203.63 113.836C203.714 115.631 202.33 117.151 200.533 117.235C198.736 117.32 197.214 115.937 197.13 114.132C197.034 112.348 198.43 110.827 200.226 110.743Z" fill="#253757"/>
<path fill-rule="evenodd" clip-rule="evenodd" d="M155.888 120.033C157.685 119.949 159.207 121.332 159.292 123.126C159.376 124.921 157.992 126.441 156.195 126.526C154.398 126.61 152.876 125.227 152.792 123.432C152.697 121.638 154.092 120.118 155.888 120.033Z" fill="#253757"/>
<path d="M147.253 124.193C150.678 121.458 156.554 120.223 160.814 121.131" stroke="#253757" stroke-width="1.9199" stroke-miterlimit="22.9256" stroke-linecap="round" stroke-linejoin="round"/>
<path fill-rule="evenodd" clip-rule="evenodd" d="M125.798 65.0201C141.641 62.8031 179.986 53.9352 191.422 46.2496C187.374 57.3874 144.823 67.5961 125.798 65.0201Z" fill="#2D4163"/>
<path fill-rule="evenodd" clip-rule="evenodd" d="M133.175 55.1598C142.941 36.4421 165.887 34.8164 186.18 42.1641C169.861 38.9125 141.102 44.9406 133.175 55.1598Z" fill="#2D4163"/>
<path fill-rule="evenodd" clip-rule="evenodd" d="M200.248 48.3822C218.162 52.0244 223.014 79.3355 221.217 97.9793C218.3 78.5438 213.787 55.6454 200.248 48.3822Z" fill="#2D4163"/>
<path fill-rule="evenodd" clip-rule="evenodd" d="M281.039 114.828C271.579 114.206 255.821 124.171 260.355 129.207C264.445 133.736 270.005 121.395 282.244 122.672C287.106 123.179 295.392 129.904 297.516 125.227C298.668 122.672 287.423 115.251 281.039 114.828Z" fill="#FFD9D1"/>
<path fill-rule="evenodd" clip-rule="evenodd" d="M292.073 125.818C288.997 125.481 284.41 126.103 282.022 127.149C271.4 131.762 268.176 141.654 272.224 143.322C275.997 144.884 277.847 138.709 285.679 135.742C288.131 134.813 292.538 134.222 296.089 135.552C304.672 138.73 299.408 126.631 292.073 125.818Z" fill="#FFD9D1"/>
<path d="M199.836 55.1282C188.759 65.1891 164.883 77.1714 149.41 78.7866" stroke="#253757" stroke-width="1.1999" stroke-miterlimit="22.9256" stroke-linecap="round" stroke-linejoin="round"/>
<path d="M182.861 35.492C175.019 29.2 149.885 28.5982 136.663 35.6503" stroke="#253757" stroke-width="1.1999" stroke-miterlimit="22.9256" stroke-linecap="round" stroke-linejoin="round"/>
<path d="M203.524 37.5928C216.366 41.4356 229.313 57.0179 232.03 67.5433" stroke="#253757" stroke-width="1.1999" stroke-miterlimit="22.9256" stroke-linecap="round" stroke-linejoin="round"/>
<path fill-rule="evenodd" clip-rule="evenodd" d="M227.949 96.1847C224.694 95.8891 221.544 101.294 220.91 108.262C220.276 115.23 222.401 121.12 225.656 121.406C228.911 121.701 232.061 116.296 232.695 109.328C233.34 102.361 231.205 96.4803 227.949 96.1847Z" fill="#FAC7BB"/>
<path d="M229.408 100.788C226.28 97.2403 222.876 108.885 224.419 113.477" stroke="#E0B4AA" stroke-width="1.1999" stroke-miterlimit="22.9256" stroke-linecap="round" stroke-linejoin="round"/>
<path d="M224.208 110.342C226.893 110.141 230.243 111.429 229.345 114.089" stroke="#E0B4AA" stroke-width="1.1999" stroke-miterlimit="22.9256" stroke-linecap="round" stroke-linejoin="round"/>
<path fill-rule="evenodd" clip-rule="evenodd" d="M262.099 106.267C259.509 106.942 255.197 108.895 255.651 110.532C256.412 113.255 261.517 112.284 263.335 111.63C265.322 110.912 264.329 105.686 262.099 106.267Z" fill="#FFE8E3"/>
<path fill-rule="evenodd" clip-rule="evenodd" d="M263.949 121.152C261.983 122.968 259.097 126.726 260.281 127.951C262.236 129.988 266.284 126.737 267.574 125.301C268.98 123.728 265.64 119.59 263.949 121.152Z" fill="#FFE8E3"/>
<path fill-rule="evenodd" clip-rule="evenodd" d="M272.51 135.172C271.358 137.146 269.962 140.926 271.231 141.633C273.334 142.805 275.818 139.131 276.505 137.642C277.266 136.006 273.493 133.472 272.51 135.172Z" fill="#FFE8E3"/>
</svg>
