<svg width="193" height="176" viewBox="0 0 193 176" fill="none" xmlns="http://www.w3.org/2000/svg">
<g clip-path="url(#clip0_189_461)">
<path d="M207.371 218.978C207.126 218.577 206.881 218.109 206.614 217.73C175.824 172.592 132.646 161.742 132.646 161.742L147.306 218.978H207.371Z" fill="#FAC7BB"/>
<path d="M36.4439 218.978L51.3933 160.606C51.3933 160.606 8.21597 171.456 -22.5741 216.594C-23.0865 217.329 -23.5321 218.154 -24 218.978H36.4439Z" fill="#FAC7BB"/>
<path d="M176.024 218.978C176.024 218.978 179.343 197.011 175.957 190.861C167.313 175.132 115.469 152.229 115.469 152.229V100.229H62.2655V152.229C62.2655 152.229 14.2312 174.798 6.50027 189.703C3.13609 196.208 7.16862 219 7.16862 219H176.024V218.978Z" fill="#F2B6A9"/>
<path d="M131.421 74.229C131.421 74.229 135.297 68.0354 143.318 71.0877C151.339 74.1176 147.707 93.5898 135.676 96.0851C135.676 96.0851 131.354 97.0208 127.99 94.0799C128.012 94.0799 130.975 79.6875 131.421 74.229Z" fill="#F2B6A9"/>
<path d="M141.736 77.972C141.736 77.972 135.03 75.7218 130.262 85.6138" stroke="#282828" stroke-width="1.3968" stroke-miterlimit="10" stroke-linecap="round" stroke-linejoin="round"/>
<path d="M49.3436 74.229C49.3436 74.229 45.467 68.0354 37.4464 71.0877C29.4259 74.1176 33.0574 93.5898 45.0882 96.0851C45.0882 96.0851 49.4104 97.0208 52.7746 94.0799C52.7746 94.0799 49.8115 79.6875 49.3436 74.229Z" fill="#F2B6A9"/>
<path d="M39.0283 77.972C39.0283 77.972 45.7344 75.7218 50.5022 85.6138" stroke="#282828" stroke-width="1.3968" stroke-miterlimit="10" stroke-linecap="round" stroke-linejoin="round"/>
<path d="M132.223 58.2545C132.223 69.9957 131.064 94.5476 123.868 109.118C117.095 122.798 105.888 130.172 91.1841 130.618C76.502 131.063 65.5406 125.404 56.7848 107.626C48.0067 89.8689 48.43 58.455 48.43 58.455C48.43 58.455 48.43 11 89.8696 11C133.537 11.0223 132.223 58.2545 132.223 58.2545Z" fill="#FAC7BB"/>
<path d="M54.6236 38.1585C54.4676 41.946 52.507 59.97 47.561 66.0077C47.561 66.0077 45.8009 42.7257 50.5019 34.5492C51.6158 32.6109 54.6236 29.024 54.6236 38.1585Z" fill="#282828"/>
<path d="M125.427 38.1585C125.583 41.946 127.544 59.97 132.468 66.0077C132.468 66.0077 134.228 42.7257 129.549 34.5492C128.413 32.6109 125.405 29.024 125.427 38.1585Z" fill="#282828"/>
</g>
<defs>
<clipPath id="clip0_189_461">
<rect width="193" height="176" fill="white"/>
</clipPath>
</defs>
</svg>
