<svg width="156" height="154" viewBox="0 0 156 154" fill="none" xmlns="http://www.w3.org/2000/svg">
<path d="M131.614 68.8915C131.614 68.8915 136.799 60.6304 147.491 64.6989C158.183 68.7674 153.346 94.7413 137.295 98.0408C137.295 98.0408 131.54 99.306 127.025 95.3615C127.049 95.3615 130.994 76.1602 131.614 68.8915Z" fill="#F2B6A9"/>
<path d="M22.112 68.8915C22.112 68.8915 16.9272 60.6304 6.23497 64.6989C-4.45724 68.7674 0.380267 94.7413 16.431 98.0408C16.431 98.0408 22.1865 99.306 26.7015 95.3615C26.6767 95.3615 22.7322 76.1602 22.112 68.8915Z" fill="#F2B6A9"/>
<path d="M101.011 130.967C130.883 118.38 144.895 83.96 132.307 54.088C119.72 24.2161 85.2998 10.2041 55.4278 22.7915C25.5559 35.3789 11.5439 69.799 24.1313 99.671C36.7187 129.543 71.1388 143.555 101.011 130.967Z" fill="#FAC7BB"/>
<path d="M77.8307 143.588H74.2583C72.5962 143.588 71.2566 142.248 71.2566 140.586V132.226C71.2566 130.564 72.5962 129.224 74.2583 129.224H77.8307C79.4928 129.224 80.8324 130.564 80.8324 132.226V140.586C80.8324 142.248 79.4928 143.588 77.8307 143.588Z" fill="#FAC7BB"/>
<path d="M115.241 26.172C104.499 17.7621 90.6809 13.5944 77.0862 14.0658C63.4666 13.5944 49.6734 17.7621 38.9316 26.172C16.1331 43.9841 10.6505 77.5741 23.3522 103.027C24.8158 105.954 26.5276 108.733 28.4626 111.387C37.5919 93.476 42.4543 73.9521 48.3585 54.7756C55.0815 62.8629 65.5256 67.7253 76.0194 67.6509C86.5379 67.5765 96.9077 62.5653 103.507 54.3787C107.947 64.5499 111.644 74.994 115.216 85.4878C116.952 90.5734 118.491 95.7583 120.376 100.769C121.79 104.515 124.866 107.443 125.858 111.238C127.744 108.658 129.431 105.905 130.87 103.027C143.522 77.5741 138.014 43.9841 115.241 26.172Z" fill="#282828"/>
<path d="M77.2843 101.663C103.631 101.663 124.99 83.0029 124.99 59.9852C124.99 36.9674 103.631 18.3079 77.2843 18.3079C50.9372 18.3079 29.5786 36.9674 29.5786 59.9852C29.5786 83.0029 50.9372 101.663 77.2843 101.663Z" fill="#FAC7BB"/>
</svg>
