<svg width="147" height="135" viewBox="0 0 147 135" fill="none" xmlns="http://www.w3.org/2000/svg">
<path d="M125.503 59.8113C125.503 59.8113 130.467 51.9023 140.704 55.7974C150.94 59.6925 146.309 84.5593 130.942 87.7182C130.942 87.7182 125.432 88.9294 121.109 85.1531C121.133 85.1531 124.909 66.7939 125.503 59.8113Z" fill="#F2B6A9"/>
<path d="M20.6682 59.8113C20.6682 59.8113 15.7043 51.9023 5.46785 55.7974C-4.76864 59.6925 -0.13728 84.5593 15.2293 87.7182C15.2293 87.7182 20.7395 88.9294 25.0621 85.1531C25.0383 85.1531 21.262 66.7939 20.6682 59.8113Z" fill="#F2B6A9"/>
<path d="M129.14 80.2785C136.197 50.0567 117.419 19.8359 87.1969 12.7785C56.9751 5.72117 26.7543 24.4997 19.6969 54.7216C12.6396 84.9435 31.4181 115.164 61.64 122.222C91.8619 129.279 122.083 110.5 129.14 80.2785Z" fill="#FAC7BB"/>
<path d="M74.0117 131.324H70.5916C69.0003 131.324 67.7178 130.042 67.7178 128.45V120.446C67.7178 118.855 69.0003 117.573 70.5916 117.573H74.0117C75.603 117.573 76.8855 118.855 76.8855 120.446V128.45C76.8855 130.042 75.603 131.324 74.0117 131.324Z" fill="#FAC7BB"/>
<path d="M59.5952 113.108C74.0593 117.715 84.9608 117.525 100.066 116.124C105.719 115.601 110.659 110.756 114.554 106.79C118.663 102.586 122.13 97.7647 124.743 92.4921C136.903 68.1241 131.631 35.9658 109.828 18.9129C95.221 7.48888 74.7005 4.11631 57.1964 10.2677C49.5724 12.9515 42.2098 17.6779 38.5997 24.9218C36.4621 22.7605 32.757 22.8555 30.1682 24.4468C27.5794 26.0143 25.8694 28.7219 24.4919 31.4294C15.6091 48.7911 15.2766 74.2754 23.7556 91.8508C25.5131 95.5084 27.6744 98.976 30.192 102.159C30.857 102.99 33.0896 106.552 34.1821 106.624C36.0346 106.742 38.9322 102.657 40.1672 101.446C43.8723 106.79 54.7738 111.564 59.5952 113.108Z" fill="#282828"/>
<path d="M36.7471 83.752C37.6021 70.0479 38.4571 56.3676 39.3121 42.6636" stroke="white" stroke-miterlimit="10" stroke-linecap="round" stroke-linejoin="round"/>
<path d="M45.8438 87.9795C61.2579 102.705 85.2697 107.716 105.291 100.33" stroke="white" stroke-miterlimit="10" stroke-linecap="round" stroke-linejoin="round"/>
<path d="M60.5215 25.5395C75.6981 20.4806 93.5348 24.5895 104.983 35.7522" stroke="white" stroke-miterlimit="10" stroke-linecap="round" stroke-linejoin="round"/>
<path d="M30.5479 95.4371C31.8779 93.7033 33.2317 91.9457 34.5617 90.2119" stroke="white" stroke-miterlimit="10" stroke-linecap="round" stroke-linejoin="round"/>
</svg>
