<svg width="193" height="176" viewBox="0 0 193 176" fill="none" xmlns="http://www.w3.org/2000/svg">
<g clip-path="url(#clip0_189_160)">
<path d="M211.014 222C210.77 221.601 210.526 221.135 210.26 220.759C179.629 175.854 136.674 165.06 136.674 165.06L151.258 222H211.014Z" fill="#F2B6A9"/>
<path d="M40.9684 222L55.8407 163.929C55.8407 163.929 12.8861 174.723 -17.7451 219.628C-18.2327 220.36 -18.6981 221.18 -19.1636 222H40.9684Z" fill="#F2B6A9"/>
<path d="M179.828 222C179.828 222 183.131 200.146 179.762 194.028C171.162 178.38 119.585 155.573 119.585 155.573V103.864H66.6568V155.573C66.6568 155.573 18.8704 178.026 11.1794 192.854C7.83256 199.326 11.8443 222 11.8443 222H179.828Z" fill="#F2B6A9"/>
<path d="M135.455 78.0202C135.455 78.0202 139.311 71.8585 147.291 74.895C155.27 77.9094 151.657 97.281 139.688 99.7634C139.688 99.7634 135.388 100.694 132.042 97.7686C132.064 97.7465 135.012 83.4504 135.455 78.0202Z" fill="#F2B6A9"/>
<path d="M145.717 81.7217C145.717 81.7217 139.045 79.4831 134.302 89.3241" stroke="#282828" stroke-width="2.23222" stroke-miterlimit="10" stroke-linecap="round" stroke-linejoin="round"/>
<path d="M53.8016 78.0202C53.8016 78.0202 49.945 71.8585 41.9658 74.895C33.9867 77.9094 37.5994 97.281 49.5682 99.7634C49.5682 99.7634 53.8681 100.694 57.2149 97.7686C57.2149 97.7465 54.2671 83.4504 53.8016 78.0202Z" fill="#F2B6A9"/>
<path d="M43.5396 81.7217C43.5396 81.7217 50.211 79.4831 54.9542 89.3241" stroke="#282828" stroke-width="2.23222" stroke-miterlimit="10" stroke-linecap="round" stroke-linejoin="round"/>
<path d="M136.253 62.1062C136.253 73.7868 135.101 98.2119 127.942 112.707C121.204 126.316 110.055 133.653 95.4264 134.096C80.8201 134.539 69.9152 128.91 61.2046 111.222C52.494 93.5352 52.8929 62.3056 52.8929 62.3056C52.8929 62.3056 52.8929 20.5923 94.1187 20.5923C137.561 20.6144 136.253 62.1062 136.253 62.1062Z" fill="#FAC7BB"/>
<path d="M74.1709 53.1739C81.1084 63.5025 94.54 62.4829 105.356 61.4855C116.372 60.466 127.609 62.0618 136.165 68.29C136.231 66.0071 136.276 63.8793 136.276 62.1062C136.276 62.1062 137.561 20.6144 94.141 20.6144C83.9676 20.6144 76.3874 23.1855 70.6246 27.0199C70.3365 35.797 69.1396 45.6823 74.1709 53.1739Z" fill="#F2B6A9"/>
<path d="M114.953 56.5208C115.352 56.5651 115.773 56.6094 116.15 56.6759C117.17 56.8532 118.123 57.0527 119.031 57.2965C119.12 57.3187 119.209 57.3408 119.297 57.363C128.717 59.8676 133.239 65.7633 135.234 69.4426C136.253 71.3266 135.633 78.0645 135.633 78.0645L143.324 43.6433C143.545 41.0057 143.235 36.5728 142.437 33.7358C140.088 25.2468 134.591 13.2559 114.953 4.32365C82.4823 -10.4378 71.9543 17.3341 71.9543 17.3341C57.215 11.0395 48.593 24.7814 46.2436 31.9405C44.8251 36.2625 45.9776 40.8727 46.3987 43.8649L51.2084 67.6473L53.5578 78.0645C53.58 78.131 55.7964 64.7659 55.7964 64.7659C59.2319 61.951 62.0246 58.3161 64.2189 54.4595L64.2411 54.4373C64.8838 53.3291 65.4601 52.1987 66.0142 51.0462C66.0364 50.9797 66.0807 50.9132 66.1029 50.8688C66.6348 49.7606 67.1003 48.6746 67.5436 47.5885C67.5879 47.4999 67.6101 47.4112 67.6544 47.3225C68.0755 46.2587 68.4745 45.1948 68.8069 44.1752C68.8291 44.0865 68.8513 44.0201 68.8956 43.9314C69.2502 42.8897 69.5605 41.8701 69.8487 40.917C74.747 47.3225 85.807 56.6316 108.614 56.1883C110.033 56.1661 111.363 56.2105 112.626 56.2991C113.424 56.2991 114.177 56.4099 114.953 56.5208Z" fill="url(#paint0_linear_189_160)"/>
<path d="M75.6558 28.1948C88.2895 42.4908 108.747 49.4061 127.454 45.6825" stroke="#575757" stroke-width="1.5981" stroke-miterlimit="10" stroke-linecap="round" stroke-linejoin="round"/>
<path d="M49.7456 34.578C51.8069 28.5271 57.1707 23.7175 63.3989 22.3211" stroke="#575757" stroke-width="1.5981" stroke-miterlimit="10" stroke-linecap="round" stroke-linejoin="round"/>
<path d="M89.021 6.36269C96.6012 4.87767 105.334 5.34312 112.914 8.49047C120.494 11.6156 128.296 19.1294 131.798 26.5544" stroke="#575757" stroke-width="1.5981" stroke-miterlimit="10" stroke-linecap="round" stroke-linejoin="round"/>
</g>
<defs>
<linearGradient id="paint0_linear_189_160" x1="70" y1="8" x2="143" y2="82.5" gradientUnits="userSpaceOnUse">
<stop stop-color="#3E3E3E"/>
<stop offset="1" stop-color="#282828"/>
</linearGradient>
<clipPath id="clip0_189_160">
<rect width="193" height="176" fill="white"/>
</clipPath>
</defs>
</svg>
