<svg width="193" height="176" viewBox="0 0 193 176" fill="none" xmlns="http://www.w3.org/2000/svg">
<g clip-path="url(#clip0_189_375)">
<path d="M213.786 228C213.537 227.593 213.288 227.118 213.017 226.734C181.773 180.93 137.958 169.92 137.958 169.92L152.834 228H213.786Z" fill="#FAC7BB"/>
<path d="M40.3359 228L55.506 168.767C55.506 168.767 11.6914 179.777 -19.5531 225.581C-20.0505 226.327 -20.5252 227.163 -21 228H40.3359Z" fill="#FAC7BB"/>
<path d="M181.976 228C181.976 228 185.344 205.708 181.908 199.469C173.136 183.507 120.527 160.266 120.527 160.266V107.476H66.5384V160.243C66.5384 160.243 17.7952 183.146 9.95021 198.27C6.53638 204.872 10.6285 228 10.6285 228H181.976Z" fill="#F2B6A9"/>
<path d="M136.715 81.1147C136.715 81.1147 140.648 74.8296 148.787 77.9269C156.926 81.0242 153.241 100.761 141.033 103.293C141.033 103.293 136.647 104.243 133.233 101.259C133.256 101.259 136.262 86.6537 136.715 81.1147Z" fill="#F2B6A9"/>
<path d="M147.182 84.8903C147.182 84.8903 140.377 82.6068 135.539 92.6449" stroke="#282828" stroke-width="1.3968" stroke-miterlimit="10" stroke-linecap="round" stroke-linejoin="round"/>
<path d="M53.4257 81.1149C53.4257 81.1149 49.4919 74.8298 41.3529 77.9272C33.214 81.0245 36.8991 100.761 49.1075 103.294C49.1075 103.294 53.4935 104.243 56.9073 101.259C56.9073 101.259 53.9004 86.6539 53.4257 81.1149Z" fill="#F2B6A9"/>
<path d="M42.958 84.8904C42.958 84.8904 49.7631 82.607 54.6012 92.645" stroke="#282828" stroke-width="1.3968" stroke-miterlimit="10" stroke-linecap="round" stroke-linejoin="round"/>
<path d="M137.528 64.9046C137.528 76.8191 136.353 101.733 129.05 116.519C122.177 130.4 110.805 137.884 95.884 138.336C80.9626 138.788 69.8846 133.023 60.977 115.004C52.0694 96.9856 52.4989 65.1081 52.4989 65.1081C52.4989 65.1081 52.4989 22.5595 94.5501 22.5595C138.862 22.5595 137.528 64.9046 137.528 64.9046Z" fill="#FAC7BB"/>
<path d="M138.523 29.6812C131.243 12.2729 112.976 8 97.1953 8C96.5171 8 95.8162 8.02261 95.1154 8.02261C94.4145 8.02261 93.7137 8 93.0354 8C77.2549 8 58.9876 12.2729 51.7077 29.6812C44.4731 46.9991 53.4033 83.6469 53.4033 83.6469C53.4033 83.6469 53.3807 76.9097 53.3355 70.2855C61.5875 62.1918 64.4135 40.0584 64.6396 34.8133C65.7926 33.5246 67.1039 32.3038 68.5056 31.1508C69.1386 33.1855 70.0656 35.1524 71.2186 37.0063C77.7071 43.7209 86.253 46.1174 94.8893 45.62C94.9345 45.62 95.0023 45.62 95.0476 45.62C95.0702 45.62 95.0928 45.62 95.1154 45.62C95.138 45.62 95.1606 45.62 95.1832 45.62C95.2284 45.62 95.2963 45.62 95.3415 45.62C103.978 46.1174 112.524 43.7435 119.012 37.0063C120.165 35.1524 121.07 33.1855 121.725 31.1508C123.127 32.3038 124.438 33.5246 125.591 34.8133C125.817 40.0584 128.643 62.1918 136.895 70.2855C136.873 76.9097 136.827 83.6469 136.827 83.6469C136.827 83.6469 145.735 46.9765 138.523 29.6812Z" fill="url(#paint0_linear_189_375)"/>
<path d="M78.4756 24.843C82.4546 31.6029 91.95 34.4515 98.9812 30.9698" stroke="#575757" stroke-miterlimit="10" stroke-linecap="round" stroke-linejoin="round"/>
</g>
<defs>
<linearGradient id="paint0_linear_189_375" x1="54.5" y1="8" x2="141" y2="84" gradientUnits="userSpaceOnUse">
<stop stop-color="#3E3E3E"/>
<stop offset="1" stop-color="#282828"/>
</linearGradient>
<clipPath id="clip0_189_375">
<rect width="193" height="176" fill="white"/>
</clipPath>
</defs>
</svg>
