<svg width="154" height="153" viewBox="0 0 154 153" fill="none" xmlns="http://www.w3.org/2000/svg">
<path d="M130.451 68.5256C130.451 68.5256 135.61 60.3054 146.25 64.3538C156.889 68.4022 152.076 94.2479 136.104 97.5311C136.104 97.5311 130.377 98.79 125.884 94.865C125.909 94.865 129.834 75.7585 130.451 68.5256Z" fill="#F2B6A9"/>
<path d="M21.4896 68.5256C21.4896 68.5256 16.3304 60.3054 5.69091 64.3538C-4.94854 68.4022 -0.134872 94.2479 15.8366 97.5311C15.8366 97.5311 21.5637 98.79 26.0564 94.865C26.0317 94.865 22.1068 75.7585 21.4896 68.5256Z" fill="#F2B6A9"/>
<path d="M100.036 130.321C129.761 117.796 143.704 83.5457 131.178 53.8212C118.653 24.0966 84.4029 10.1539 54.6784 22.6792C24.9539 35.2044 11.0112 69.4546 23.5364 99.1791C36.0617 128.904 70.3119 142.846 100.036 130.321Z" fill="#FAC7BB"/>
<path d="M76.9332 142.854H73.3785C71.7246 142.854 70.3916 141.521 70.3916 139.867V131.548C70.3916 129.894 71.7246 128.561 73.3785 128.561H76.9332C78.5872 128.561 79.9202 129.894 79.9202 131.548V139.867C79.9202 141.496 78.5872 142.854 76.9332 142.854Z" fill="#FAC7BB"/>
<path d="M128.082 39.002C121.91 26.9555 96.9038 13.9462 76.7852 14.7115C56.6665 13.9462 31.6601 26.9308 25.4887 39.002C16.2563 57.0471 15.9107 83.5346 24.7235 101.802C26.5502 105.603 28.7966 109.207 31.4132 112.515C31.7588 112.935 31.9563 113.355 32.376 113.7C32.7216 113.873 38.498 103.308 38.9176 102.592C42.9167 95.507 44.8915 90.6687 46.1258 82.5472C52.4699 92.6682 64.0968 99.1605 76.0199 99.4567C76.0199 99.4814 76.0199 99.5061 76.0199 99.5061C76.094 99.5061 76.168 99.5308 76.2421 99.5308C76.4396 99.5308 76.6124 99.5061 76.8098 99.5061C77.0073 99.5061 77.1801 99.5308 77.3776 99.5308C77.4517 99.5308 77.5257 99.5061 77.5998 99.5061C77.5998 99.5061 77.5998 99.4814 77.5998 99.4567C89.5229 99.1605 101.15 92.6682 107.494 82.5472C108.728 90.6687 110.703 95.5317 114.702 102.592C115.097 103.308 120.873 113.873 121.244 113.7C121.663 113.355 121.861 112.935 122.206 112.515C124.823 109.207 127.069 105.603 128.896 101.802C137.66 83.5346 137.314 57.0471 128.082 39.002Z" fill="#282828"/>
<path d="M78.8092 48.6537C84.9442 48.6537 89.9176 43.6803 89.9176 37.5452C89.9176 31.4102 84.9442 26.4368 78.8092 26.4368C72.6741 26.4368 67.7007 31.4102 67.7007 37.5452C67.7007 43.6803 72.6741 48.6537 78.8092 48.6537Z" fill="#FAC7BB"/>
<path d="M59.3816 84.9414C64.8371 91.4831 74.6372 93.9516 82.5366 90.8166" stroke="white" stroke-miterlimit="10" stroke-linecap="round" stroke-linejoin="round"/>
</svg>
