<svg width="165" height="164" viewBox="0 0 165 164" fill="none" xmlns="http://www.w3.org/2000/svg">
<path d="M135.333 74.0435C135.333 74.0435 140.455 65.8827 151.018 69.9018C161.58 73.9209 156.801 99.5797 140.945 102.839C140.945 102.839 135.26 104.089 130.799 100.192C130.824 100.192 134.72 81.2485 135.333 74.0435Z" fill="#F2B6A9"/>
<path d="M27.1594 74.0435C27.1594 74.0435 22.0375 65.8827 11.475 69.9018C0.912514 73.9209 5.69136 99.5797 21.5473 102.839C21.5473 102.839 27.2329 104.089 31.6932 100.192C31.6687 100.192 27.7721 81.2485 27.1594 74.0435Z" fill="#F2B6A9"/>
<path d="M123.621 123C146.265 100.356 146.265 63.6437 123.621 41C100.977 18.3563 64.2648 18.3563 41.6211 41C18.9774 63.6437 18.9774 100.356 41.6211 123C64.2648 145.644 100.977 145.644 123.621 123Z" fill="#FAC7BB"/>
<path d="M82.2021 147.834H78.6731C77.0311 147.834 75.7078 146.51 75.7078 144.868V136.609C75.7078 134.967 77.0311 133.644 78.6731 133.644H82.2021C83.844 133.644 85.1674 134.967 85.1674 136.609V144.868C85.1674 146.51 83.844 147.834 82.2021 147.834Z" fill="#FAC7BB"/>
<path d="M37.9174 118.916C41.667 114.872 44.0442 107.618 46.6909 102.619C53.3813 114.627 65.9043 123.229 79.5301 125.141C93.156 127.052 107.566 122.273 117.32 112.568C119.452 115.999 121.412 119.577 123.594 122.959C123.741 122.812 123.888 122.665 124.01 122.543C128.25 118.205 131.828 113.23 134.524 107.79C147.071 82.6455 141.631 49.4632 119.133 31.8673C104.062 20.0794 82.8876 16.5995 64.826 22.9468C56.9593 25.716 49.3622 30.5929 45.6371 38.0675C43.4315 35.8374 39.6084 35.9354 36.9372 37.5774C34.2659 39.1948 32.5014 41.9886 31.08 44.7824C21.9144 62.6969 21.5713 88.9929 30.3203 107.128C32.1338 110.902 34.3639 114.48 36.9617 117.764C37.3048 118.156 37.5008 118.548 37.9174 118.916Z" fill="#282828"/>
<path d="M43.7502 98.7465C44.6325 84.606 45.5147 70.4901 46.397 56.3496" stroke="white" stroke-miterlimit="10" stroke-linecap="round" stroke-linejoin="round"/>
<path d="M68.2815 38.6802C83.9414 33.4602 102.346 37.6999 114.158 49.2181" stroke="white" stroke-miterlimit="10" stroke-linecap="round" stroke-linejoin="round"/>
<path d="M37.3538 110.804C38.7261 109.015 40.123 107.201 41.4954 105.412" stroke="white" stroke-miterlimit="10" stroke-linecap="round" stroke-linejoin="round"/>
<path d="M70.1934 107.054C86.2454 115.362 107.86 110.755 119.109 96.6389" stroke="white" stroke-miterlimit="10" stroke-linecap="round" stroke-linejoin="round"/>
</svg>
