<svg width="193" height="176" viewBox="0 0 193 176" fill="none" xmlns="http://www.w3.org/2000/svg">
<g clip-path="url(#clip0_189_543)">
<path d="M209.155 222C208.911 221.601 208.667 221.136 208.401 220.759C177.773 175.858 134.823 165.065 134.823 165.065L149.406 222H209.155Z" fill="#FAC7BB"/>
<path d="M39.1262 222L53.997 163.935C53.997 163.935 11.0466 174.728 -19.5816 219.629C-20.0692 220.36 -20.5346 221.18 -21 222H39.1262Z" fill="#FAC7BB"/>
<path d="M177.972 222C177.972 222 181.275 200.148 177.906 194.031C169.307 178.385 117.735 155.58 117.735 155.58V103.875H64.812V155.58C64.812 155.58 17.0302 178.03 9.3399 192.857C5.9934 199.328 10.0048 222 10.0048 222H177.972Z" fill="#F2B6A9"/>
<path d="M133.604 78.0342C133.604 78.0342 137.46 71.8731 145.439 74.9093C153.417 77.9234 149.805 97.2932 137.837 99.7754C137.837 99.7754 133.537 100.706 130.191 97.7807C130.213 97.7586 133.161 83.4639 133.604 78.0342Z" fill="#F2B6A9"/>
<path d="M143.865 81.7354C143.865 81.7354 137.194 79.497 132.451 89.3371" stroke="#282828" stroke-width="1.3968" stroke-miterlimit="10" stroke-linecap="round" stroke-linejoin="round"/>
<path d="M51.9583 78.0341C51.9583 78.0341 48.102 71.873 40.1236 74.9093C32.1452 77.9233 35.7577 97.2931 47.7253 99.7753C47.7253 99.7753 52.0247 100.706 55.3712 97.7807C55.3712 97.7585 52.4237 83.4639 51.9583 78.0341Z" fill="#F2B6A9"/>
<path d="M41.6973 81.7353C41.6973 81.7353 48.3681 79.497 53.1108 89.337" stroke="#282828" stroke-width="1.3968" stroke-miterlimit="10" stroke-linecap="round" stroke-linejoin="round"/>
<path d="M134.402 62.1217C134.402 73.8012 133.249 98.224 126.091 112.718C119.354 126.326 108.206 133.661 93.579 134.105C78.9741 134.548 68.0703 128.919 59.3605 111.233C50.6508 93.5478 51.0497 62.3212 51.0497 62.3212C51.0497 62.3212 51.0497 20.6119 92.2714 20.6119C135.709 20.634 134.402 62.1217 134.402 62.1217Z" fill="#FAC7BB"/>
<path d="M86.4649 51.0849C96.3493 51.2179 104.372 45.633 113.591 43.0179C119.464 41.3557 125.47 41.7103 130.679 43.7714C126.047 32.6681 115.63 20.634 92.2493 20.634C80.4146 20.634 71.9708 24.0913 65.9648 28.9892C66.3416 41.9098 72.7243 50.8855 86.4649 51.0849Z" fill="#F2B6A9"/>
<path d="M141.471 43.6383C141.693 41.001 141.383 36.5686 140.585 33.7318C138.236 25.2437 132.739 13.2539 113.104 4.3225C80.636 -10.4375 70.1089 17.3317 70.1089 17.3317C55.3711 11.0377 46.7499 24.7782 44.4008 31.9367C42.9824 36.2583 44.1348 40.868 44.5559 43.8599L51.9581 80.4941C51.9581 80.4941 50.7613 66.4211 51.1824 66.0443C60.9559 57.1794 64.2581 36.7015 64.4354 32.2026C64.4132 31.3383 64.5462 30.3631 64.7678 29.388C65.3219 32.3799 66.3414 35.0394 67.6933 37.721C72.6576 44.0816 82.0987 47.4502 89.5896 47.561C100.094 47.7162 107.674 41.5994 117.447 39.6713C118.644 39.4275 119.797 39.4053 120.927 39.494C122.412 47.007 125.67 57.9551 131.631 64.5373C132.274 65.2687 133.604 80.4941 133.604 80.4941L141.471 43.6383Z" fill="url(#paint0_linear_189_543)"/>
<path d="M71.5273 29.7205C76.3809 35.1724 83.5836 38.4524 90.8971 38.4968C98.1885 38.5411 105.458 35.3719 110.378 29.9643" stroke="#575757" stroke-miterlimit="10" stroke-linecap="round" stroke-linejoin="round"/>
<path d="M91.7393 9.13162C102.532 5.76296 115.165 9.39757 122.5 18.0187" stroke="#575757" stroke-miterlimit="10" stroke-linecap="round" stroke-linejoin="round"/>
<path d="M49.4756 32.8897C51.0934 28.147 55.0605 24.2686 59.8475 22.7615" stroke="#575757" stroke-miterlimit="10" stroke-linecap="round" stroke-linejoin="round"/>
</g>
<defs>
<linearGradient id="paint0_linear_189_543" x1="63" y1="9" x2="136" y2="75" gradientUnits="userSpaceOnUse">
<stop stop-color="#3E3E3E"/>
<stop offset="1" stop-color="#282828"/>
</linearGradient>
<clipPath id="clip0_189_543">
<rect width="193" height="176" fill="white"/>
</clipPath>
</defs>
</svg>
