<svg width="193" height="176" viewBox="0 0 193 176" fill="none" xmlns="http://www.w3.org/2000/svg">
<g clip-path="url(#clip0_189_353)">
<path d="M208.882 221.978C208.639 221.579 208.395 221.115 208.13 220.738C177.538 175.891 134.638 165.111 134.638 165.111L149.204 221.978H208.882Z" fill="#FAC7BB"/>
<path d="M39.0549 221.978L53.9081 163.982C53.9081 163.982 11.0086 174.762 -19.5833 219.609C-20.0703 220.34 -20.5351 221.159 -21 221.978H39.0549Z" fill="#FAC7BB"/>
<path d="M177.737 221.978C177.737 221.978 181.035 200.152 177.67 194.042C169.082 178.414 117.571 155.659 117.571 155.659V103.993H64.7105V155.659C64.7105 155.659 16.9853 178.082 9.30414 192.891C5.96161 199.355 9.96823 222 9.96823 222H177.737V221.978Z" fill="#F2B6A9"/>
<path d="M133.421 78.1606C133.421 78.1606 137.272 72.0068 145.241 75.0394C153.21 78.0499 149.602 97.3968 137.649 99.876C137.649 99.876 133.354 100.806 130.012 97.8837C130.034 97.8837 132.978 83.5839 133.421 78.1606Z" fill="#F2B6A9"/>
<path d="M143.67 81.8794C143.67 81.8794 137.007 79.6437 132.27 89.4721" stroke="#282828" stroke-width="1.3968" stroke-miterlimit="10" stroke-linecap="round" stroke-linejoin="round"/>
<path d="M51.8718 78.1606C51.8718 78.1606 48.0201 72.0068 40.0512 75.0394C32.0822 78.0499 35.6904 97.3968 47.6438 99.876C47.6438 99.876 51.9382 100.806 55.2807 97.8837C55.2807 97.8837 52.3366 83.5839 51.8718 78.1606Z" fill="#F2B6A9"/>
<path d="M41.623 81.8794C41.623 81.8794 48.286 79.6437 53.0231 89.4721" stroke="#282828" stroke-width="1.3968" stroke-miterlimit="10" stroke-linecap="round" stroke-linejoin="round"/>
<path d="M134.218 62.2889C134.218 73.9546 133.066 98.3484 125.917 112.825C119.187 126.417 108.053 133.744 93.4431 134.187C78.8555 134.629 67.9646 129.007 59.2652 111.342C50.5436 93.6999 50.9642 62.4882 50.9642 62.4882C50.9642 62.4882 50.9642 15.3386 92.1371 15.3386C135.524 15.3607 134.218 62.2889 134.218 62.2889Z" fill="#FAC7BB"/>
<path d="M91.8492 11C71.2849 11 60.5489 20.2086 54.9486 30.5682C54.4616 31.0995 54.0188 31.7414 53.7089 32.2727C52.5357 34.287 51.7167 37.0983 51.119 40.2416C48.352 50.2249 49.1047 58.9244 49.1047 58.9244C49.1047 58.9244 49.3482 62.1562 49.9901 67.0483C50.0787 68.8634 51.606 78.072 51.606 78.072C51.606 78.072 52.5358 71.0549 52.4472 68.7749C57.7598 60.5846 58.5346 40.8836 58.7117 36.5892C58.7117 35.5709 58.6674 34.7298 58.6231 33.9771C64.3785 24.0381 74.4504 15.3386 92.1591 15.3386C109.912 15.3386 120.161 23.1969 126.116 32.494C125.961 33.5344 125.85 34.8626 125.85 36.6113C126.049 41.0606 126.249 61.6028 132.026 69.1733C131.982 70.1694 133.797 77.0316 133.753 78.0941C133.885 77.1644 134.439 69.771 134.439 69.4389C134.992 65.3881 135.391 61.6914 135.656 58.7251C135.634 58.703 141.235 11 91.8492 11Z" fill="url(#paint0_linear_189_353)"/>
</g>
<defs>
<linearGradient id="paint0_linear_189_353" x1="92.4244" y1="11" x2="92.4244" y2="78.0941" gradientUnits="userSpaceOnUse">
<stop stop-color="#3E3E3E"/>
<stop offset="1" stop-color="#282828"/>
</linearGradient>
<clipPath id="clip0_189_353">
<rect width="193" height="176" fill="white"/>
</clipPath>
</defs>
</svg>
