<svg width="193" height="176" viewBox="0 0 193 176" fill="none" xmlns="http://www.w3.org/2000/svg">
<g clip-path="url(#clip0_189_328)">
<path d="M207.972 221.978C207.727 221.577 207.483 221.11 207.216 220.732C176.479 175.672 133.376 164.841 133.376 164.841L148.01 221.978H207.972Z" fill="#FAC7BB"/>
<path d="M37.3395 221.978L52.2631 163.707C52.2631 163.707 9.1603 174.538 -21.5766 219.598C-22.0659 220.332 -22.5329 221.155 -23 221.978H37.3395Z" fill="#FAC7BB"/>
<path d="M176.678 221.978C176.678 221.978 179.992 200.048 176.612 193.91C167.982 178.208 116.228 155.344 116.228 155.344V103.434H63.1166V155.344C63.1166 155.344 15.1652 177.874 7.44766 192.753C4.08928 199.248 8.11488 222 8.11488 222H176.678V221.978Z" fill="#F2B6A9"/>
<path d="M132.152 77.4787C132.152 77.4787 136.022 71.2958 144.029 74.3428C152.035 77.3675 148.41 96.8061 136.4 99.297C136.4 99.297 132.085 100.231 128.727 97.2954C128.749 97.2954 131.707 82.9278 132.152 77.4787Z" fill="#F2B6A9"/>
<path d="M142.45 81.2152C142.45 81.2152 135.755 78.9689 130.996 88.8438" stroke="#282828" stroke-width="1.3968" stroke-miterlimit="10" stroke-linecap="round" stroke-linejoin="round"/>
<path d="M50.217 77.4788C50.217 77.4788 46.3471 71.2958 38.3404 74.3428C30.3337 77.3676 33.9589 96.8061 45.969 99.2971C45.969 99.2971 50.2838 100.231 53.6421 97.2954C53.6421 97.2954 50.6841 82.9278 50.217 77.4788Z" fill="#F2B6A9"/>
<path d="M39.9194 81.2152C39.9194 81.2152 46.6139 78.9689 51.3735 88.8438" stroke="#282828" stroke-width="1.3968" stroke-miterlimit="10" stroke-linecap="round" stroke-linejoin="round"/>
<path d="M132.953 61.5319C132.953 73.2528 131.796 97.7623 124.613 112.308C117.851 125.964 106.664 133.325 91.9853 133.77C77.3285 134.215 66.386 128.566 57.6454 110.818C48.8825 93.0917 49.305 61.7321 49.305 61.7321C49.305 61.7321 49.305 19.8748 90.673 19.8748C134.265 19.897 132.953 61.5319 132.953 61.5319Z" fill="#FAC7BB"/>
<path d="M90.3838 10C69.722 10 58.9352 19.2522 53.3082 29.6609C52.8189 30.1947 52.3741 30.8397 52.0627 31.3735C50.884 33.3974 50.0611 36.222 49.4606 39.3802C46.6805 49.4108 47.4366 58.1515 47.4366 58.1515C47.4366 58.1515 47.6813 61.3987 48.3263 66.3139C48.4152 68.1376 49.8831 76.1888 49.8831 76.1888C49.8831 76.1888 50.6838 70.1171 50.6171 67.8263C55.7325 59.9085 56.7333 41.6265 57.0447 36.3554C60.7589 30.7285 66.2302 25.5464 74.3703 22.5661C74.7262 24.4566 75.3489 26.2581 76.2386 27.9484C80.064 32.5967 85.0904 34.2426 90.1836 33.8867C95.2768 34.2203 100.303 32.5745 104.129 27.9484C105.107 26.1024 105.774 24.1007 106.108 22.0323C114.715 24.6567 120.587 29.4163 124.568 34.7986C124.568 35.1099 124.546 35.4213 124.546 35.7549C124.746 40.2253 125.613 61.71 131.396 69.3164C131.351 70.3173 132.463 76.3668 132.463 76.3668C132.463 76.3668 134.109 60.9538 134.376 57.9513C134.376 57.9291 140.003 10 90.3838 10Z" fill="url(#paint0_linear_189_328)"/>
<path d="M51.3291 50.4561C52.1298 47.2311 52.9304 44.0285 53.7311 40.8035" stroke="#575757" stroke-miterlimit="10" stroke-linecap="round" stroke-linejoin="round"/>
<path d="M92.1187 28.1042C96.1443 28.9049 100.548 26.058 101.482 22.0769" stroke="#575757" stroke-miterlimit="10" stroke-linecap="round" stroke-linejoin="round"/>
</g>
<defs>
<linearGradient id="paint0_linear_189_328" x1="90.9557" y1="10" x2="90.9557" y2="76.3668" gradientUnits="userSpaceOnUse">
<stop stop-color="#3E3E3E"/>
<stop offset="1" stop-color="#282828"/>
</linearGradient>
<clipPath id="clip0_189_328">
<rect width="193" height="176" fill="white"/>
</clipPath>
</defs>
</svg>
