<svg width="161" height="161" viewBox="0 0 161 161" fill="none" xmlns="http://www.w3.org/2000/svg">
<path d="M132.261 72.7054C132.261 72.7054 137.289 64.6939 147.659 68.6395C158.028 72.5851 153.336 97.7745 137.771 100.974C137.771 100.974 132.189 102.201 127.81 98.3759C127.834 98.3759 131.66 79.7546 132.261 72.7054Z" fill="#F2B6A9"/>
<path d="M26.0664 72.7054C26.0664 72.7054 21.0381 64.6939 10.6689 68.6395C0.299643 72.5851 4.99107 97.7745 20.557 100.974C20.557 100.974 26.1386 102.201 30.5172 98.3759C30.4932 98.3759 26.6678 79.7546 26.0664 72.7054Z" fill="#F2B6A9"/>
<path d="M120.75 120.75C142.979 98.5205 142.979 62.4795 120.75 40.25C98.5205 18.0205 62.4795 18.0205 40.25 40.25C18.0205 62.4795 18.0205 98.5205 40.25 120.75C62.4795 142.979 98.5205 142.979 120.75 120.75Z" fill="#FAC7BB"/>
<path d="M80.1023 145.146H76.6379C75.026 145.146 73.7268 143.847 73.7268 142.235V134.127C73.7268 132.515 75.026 131.216 76.6379 131.216H80.1023C81.7142 131.216 83.0134 132.515 83.0134 134.127V142.235C83.0134 143.847 81.7142 145.146 80.1023 145.146Z" fill="#FAC7BB"/>
<path d="M116.383 31.2764C105.965 23.1206 92.5647 19.0787 79.3806 19.5359C66.1724 19.0787 52.7959 23.1206 42.3785 31.2764C20.2687 48.5505 14.9517 81.1259 27.2697 105.81C28.6891 108.649 30.3492 111.343 32.2258 113.918C41.0793 96.5474 45.7948 77.6133 51.5207 59.016C58.0406 66.8591 68.1693 71.5746 78.3461 71.5024C88.5469 71.4302 98.6034 66.5704 105.003 58.6311C109.31 68.4951 112.894 78.6238 116.359 88.8006C118.043 93.7326 119.534 98.7608 121.363 103.621C122.734 107.254 125.717 110.092 126.68 113.773C128.508 111.271 130.144 108.601 131.54 105.81C143.81 81.1259 138.469 48.5505 116.383 31.2764Z" fill="#282828"/>
<path d="M95.8523 79.3407C109.297 70.3547 112.911 52.1715 103.925 38.7273C94.9387 25.2832 76.7555 21.6691 63.3113 30.655C49.8672 39.641 46.2531 57.8242 55.239 71.2684C64.225 84.7125 82.4082 88.3266 95.8523 79.3407Z" fill="#FAC7BB"/>
</svg>
