<svg width="147" height="136" viewBox="0 0 147 136" fill="none" xmlns="http://www.w3.org/2000/svg">
<path d="M125.654 59.8298C125.654 59.8298 130.618 51.9198 140.856 55.8154C151.094 59.711 146.462 84.5812 131.093 87.7404C131.093 87.7404 125.582 88.9518 121.259 85.175C121.283 85.175 125.06 66.7896 125.654 59.8298Z" fill="#F2B6A9"/>
<path d="M20.805 59.8298C20.805 59.8298 15.8405 51.9198 5.60262 55.8154C-4.63524 59.711 -0.00326525 84.5812 15.3654 87.7404C15.3654 87.7404 20.8763 88.9518 25.1995 85.175C25.1757 85.175 21.3989 66.7896 20.805 59.8298Z" fill="#F2B6A9"/>
<path d="M129.276 80.2893C136.334 50.0633 117.553 19.8385 87.3271 12.7802C57.1012 5.72191 26.8763 24.503 19.818 54.7289C12.7597 84.9548 31.5408 115.18 61.7667 122.238C91.9926 129.296 122.217 110.515 129.276 80.2893Z" fill="#FAC7BB"/>
<path d="M74.1556 131.352H70.735C69.1435 131.352 67.8608 130.07 67.8608 128.478V120.473C67.8608 118.882 69.1435 117.599 70.735 117.599H74.1556C75.7471 117.599 77.0298 118.882 77.0298 120.473V128.478C77.0298 130.07 75.7471 131.352 74.1556 131.352Z" fill="#FAC7BB"/>
<path d="M109.976 18.9258C99.6909 10.8733 86.46 6.88268 73.443 7.334C60.4022 6.88268 47.1951 10.8733 36.9097 18.9258C15.08 35.981 9.83047 68.1436 21.9924 92.5149C23.3939 95.3179 25.0329 97.9783 26.8857 100.52C32.5391 89.4032 37.5748 78.0251 41.3992 66.077C41.7793 64.8893 43.6796 64.3905 44.2972 65.6969C49.0954 76.1011 60.9485 82.4908 72.8254 83.4647V83.6073C73.0392 83.6073 73.253 83.5597 73.4905 83.536C73.7043 83.5597 73.9181 83.6073 74.1556 83.6073V83.4647C86.0087 82.4908 97.8618 76.0773 102.684 65.6969C103.301 64.3905 105.202 64.8893 105.582 66.077C109.382 78.0014 114.418 89.4032 120.095 100.52C121.948 98.002 123.587 95.3179 124.989 92.5149C137.056 68.1436 131.782 35.981 109.976 18.9258Z" fill="#282828"/>
<path d="M23.1799 77.5262C25.3653 71.7778 27.5506 66.0294 29.736 60.281" stroke="white" stroke-miterlimit="10" stroke-linecap="round" stroke-linejoin="round"/>
<path d="M112.922 63.3928C115.44 69.1412 117.981 74.8897 120.499 80.6381" stroke="white" stroke-miterlimit="10" stroke-linecap="round" stroke-linejoin="round"/>
<path d="M75.2961 75.2697C80.3794 75.0559 85.2252 71.9917 87.5768 67.5022" stroke="white" stroke-miterlimit="10" stroke-linecap="round" stroke-linejoin="round"/>
<path d="M73.6331 52.1809C84.338 52.1809 93.0161 43.5028 93.0161 32.7979C93.0161 22.0929 84.338 13.4148 73.6331 13.4148C62.9281 13.4148 54.25 22.0929 54.25 32.7979C54.25 43.5028 62.9281 52.1809 73.6331 52.1809Z" fill="#FAC7BB"/>
</svg>
