<svg width="192" height="176" viewBox="0 0 192 176" fill="none" xmlns="http://www.w3.org/2000/svg">
<g clip-path="url(#clip0_24_944)">
<path d="M210.014 222C209.77 221.601 209.526 221.135 209.26 220.759C178.629 175.854 135.674 165.06 135.674 165.06L150.258 222H210.014Z" fill="white"/>
<path d="M39.9684 222L54.8407 163.929C54.8407 163.929 11.8861 174.723 -18.7451 219.628C-19.2327 220.36 -19.6981 221.18 -20.1636 222H39.9684Z" fill="white"/>
<path d="M178.828 222C178.828 222 182.131 200.146 178.762 194.028C170.162 178.38 118.585 155.573 118.585 155.573V103.864H65.6568V155.573C65.6568 155.573 17.8704 178.026 10.1794 192.854C6.83256 199.326 10.8443 222 10.8443 222H178.828Z" fill="white"/>
<path d="M134.455 78.0201C134.455 78.0201 138.311 71.8584 146.291 74.8949C154.27 77.9093 150.657 97.281 138.688 99.7634C138.688 99.7634 134.388 100.694 131.042 97.7686C131.064 97.7464 134.012 83.4504 134.455 78.0201Z" fill="white"/>
<path d="M144.717 81.7216C144.717 81.7216 138.045 79.483 133.302 89.324" stroke="#E8F6FF" stroke-width="2.23222" stroke-miterlimit="10" stroke-linecap="round" stroke-linejoin="round"/>
<path d="M52.8016 78.0201C52.8016 78.0201 48.945 71.8584 40.9658 74.8949C32.9867 77.9093 36.5994 97.281 48.5682 99.7634C48.5682 99.7634 52.8681 100.694 56.2149 97.7686C56.2149 97.7464 53.2671 83.4504 52.8016 78.0201Z" fill="white"/>
<path d="M42.5396 81.7216C42.5396 81.7216 49.211 79.483 53.9542 89.324" stroke="#E8F6FF" stroke-width="2.23222" stroke-miterlimit="10" stroke-linecap="round" stroke-linejoin="round"/>
<path d="M135.253 62.1062C135.253 73.7868 134.101 98.2119 126.942 112.707C120.204 126.316 109.055 133.653 94.4264 134.096C79.8201 134.539 68.9152 128.91 60.2046 111.222C51.494 93.5352 51.8929 62.3056 51.8929 62.3056C51.8929 62.3056 51.8929 20.5923 93.1187 20.5923C136.561 20.6144 135.253 62.1062 135.253 62.1062Z" fill="white"/>
<path d="M73.1709 53.174C80.1084 63.5026 93.54 62.483 104.356 61.4856C115.372 60.466 126.609 62.0619 135.165 68.2901C135.231 66.0071 135.276 63.8794 135.276 62.1062C135.276 62.1062 136.561 20.6145 93.141 20.6145C82.9676 20.6145 75.3874 23.1856 69.6246 27.02C69.3365 35.7971 68.1396 45.6824 73.1709 53.174Z" fill="white"/>
<path d="M113.953 56.5208C114.352 56.5651 114.773 56.6094 115.15 56.6759C116.17 56.8532 117.123 57.0527 118.031 57.2965C118.12 57.3187 118.209 57.3408 118.297 57.363C127.717 59.8676 132.239 65.7633 134.234 69.4426C135.253 71.3266 134.633 78.0645 134.633 78.0645L142.324 43.6433C142.545 41.0057 142.235 36.5728 141.437 33.7358C139.088 25.2468 133.591 13.2559 113.953 4.32365C81.4823 -10.4378 70.9543 17.3341 70.9543 17.3341C56.215 11.0395 47.593 24.7814 45.2436 31.9405C43.8251 36.2625 44.9776 40.8727 45.3987 43.8649L50.2084 67.6473L52.5578 78.0645C52.58 78.131 54.7964 64.7659 54.7964 64.7659C58.2319 61.951 61.0246 58.3161 63.2189 54.4595L63.2411 54.4373C63.8838 53.3291 64.4601 52.1987 65.0142 51.0462C65.0364 50.9797 65.0807 50.9132 65.1029 50.8688C65.6348 49.7606 66.1003 48.6746 66.5436 47.5885C66.5879 47.4999 66.6101 47.4112 66.6544 47.3225C67.0755 46.2587 67.4745 45.1948 67.8069 44.1752C67.8291 44.0865 67.8513 44.0201 67.8956 43.9314C68.2502 42.8897 68.5605 41.8701 68.8487 40.917C73.747 47.3225 84.807 56.6316 107.614 56.1883C109.033 56.1661 110.363 56.2105 111.626 56.2991C112.424 56.2991 113.177 56.4099 113.953 56.5208Z" fill="url(#paint0_linear_24_944)"/>
<path d="M48.7456 34.5779C50.8069 28.5271 56.1707 23.7174 62.3989 22.321" stroke="#55AAD1" stroke-width="1.5981" stroke-miterlimit="10" stroke-linecap="round" stroke-linejoin="round"/>
<path d="M88.021 6.36269C95.6012 4.87767 104.334 5.34312 111.914 8.49047C119.494 11.6156 127.296 19.1294 130.798 26.5544" stroke="#55AAD1" stroke-width="1.5981" stroke-miterlimit="10" stroke-linecap="round" stroke-linejoin="round"/>
<path d="M95.576 72.16C98.84 72.16 101.448 73.056 103.4 74.848C105.384 76.64 106.376 79.088 106.376 82.192C106.376 85.424 105.352 87.856 103.304 89.488C101.256 91.12 98.536 91.936 95.144 91.936L94.952 95.728H90.2L89.96 88.192H91.544C94.648 88.192 97.016 87.776 98.648 86.944C100.312 86.112 101.144 84.528 101.144 82.192C101.144 80.496 100.648 79.168 99.656 78.208C98.696 77.248 97.352 76.768 95.624 76.768C93.896 76.768 92.536 77.232 91.544 78.16C90.552 79.088 90.056 80.384 90.056 82.048H84.92C84.92 80.128 85.352 78.416 86.216 76.912C87.08 75.408 88.312 74.24 89.912 73.408C91.544 72.576 93.432 72.16 95.576 72.16ZM92.504 106.336C91.512 106.336 90.68 106 90.008 105.328C89.336 104.656 89 103.824 89 102.832C89 101.84 89.336 101.008 90.008 100.336C90.68 99.664 91.512 99.328 92.504 99.328C93.464 99.328 94.28 99.664 94.952 100.336C95.624 101.008 95.96 101.84 95.96 102.832C95.96 103.824 95.624 104.656 94.952 105.328C94.28 106 93.464 106.336 92.504 106.336Z" fill="#3F92B8"/>
</g>
<defs>
<linearGradient id="paint0_linear_24_944" x1="55" y1="5" x2="136" y2="70" gradientUnits="userSpaceOnUse">
<stop stop-color="#7AC1E2"/>
<stop offset="1" stop-color="#3F92B8"/>
</linearGradient>
<clipPath id="clip0_24_944">
<rect width="192" height="176" fill="white"/>
</clipPath>
</defs>
</svg>
